<?xml version="1.0" standalone="no"?>
<!DOCTYPE svg PUBLIC "-//W3C//DTD SVG 20010904//EN"
 "http://www.w3.org/TR/2001/REC-SVG-20010904/DTD/svg10.dtd">
<svg version="1.0" xmlns="http://www.w3.org/2000/svg"
 width="1000.000000pt" height="1000.000000pt" viewBox="0 0 1000.000000 1000.000000"
 preserveAspectRatio="xMidYMid meet">

<g transform="translate(0.000000,1000.000000) scale(0.100000,-0.100000)"
fill="#000000" stroke="none">
<path d="M4860 8079 c-301 -39 -666 -179 -895 -344 -277 -198 -498 -477 -620
-780 -85 -212 -125 -434 -125 -696 0 -256 29 -425 97 -567 50 -102 48 -131
-15 -262 -56 -116 -77 -193 -67 -246 3 -19 22 -62 42 -96 19 -33 53 -98 74
-145 42 -91 97 -157 164 -199 l42 -27 7 -121 c3 -67 13 -152 21 -191 34 -154
35 -192 15 -350 -10 -82 -22 -203 -25 -267 l-7 -118 26 0 c26 0 26 1 26 78 0
42 7 136 15 207 28 233 29 276 10 380 -18 102 -16 189 9 296 12 52 12 47 19
-126 13 -309 44 -498 117 -696 58 -160 86 -167 34 -9 -43 129 -78 269 -95 375
-15 95 -15 341 0 405 9 41 10 39 5 -25 -7 -91 10 -244 37 -331 23 -76 77 -200
83 -193 3 2 -4 36 -15 74 -30 106 -49 248 -49 365 0 179 21 239 34 98 24 -260
86 -517 184 -767 l37 -93 110 6 c61 4 270 11 465 16 195 5 378 10 405 11 28 1
40 4 28 6 -12 2 -24 10 -27 18 -7 20 19 228 32 252 15 27 56 53 86 53 46 0 66
-29 82 -115 30 -173 16 -205 -88 -205 -34 0 -58 -3 -55 -6 4 -4 147 -10 319
-15 172 -4 366 -11 431 -14 l117 -7 25 57 c96 216 177 540 201 803 4 39 10 72
15 72 31 0 22 -315 -15 -470 -13 -58 -27 -114 -31 -125 -7 -20 -6 -20 9 -1 22
27 73 162 91 239 8 34 19 105 24 157 l10 95 -4 -120 c-2 -96 -10 -148 -38
-260 -42 -163 -80 -360 -75 -377 5 -15 91 241 113 335 26 111 44 263 52 422 7
150 7 150 19 95 25 -106 27 -200 9 -290 -19 -93 -17 -158 9 -385 9 -71 16
-165 16 -207 0 -76 0 -78 25 -78 22 0 25 4 25 38 0 59 -19 267 -35 385 -16
113 -13 163 20 317 9 41 19 127 22 191 l6 116 41 26 c23 14 58 43 78 64 41 42
193 332 204 388 8 44 -16 124 -78 258 -57 124 -57 125 2 257 22 47 49 132 62
190 20 94 22 132 22 360 0 239 -1 263 -26 380 -74 343 -218 619 -451 866 -297
314 -712 516 -1177 574 -96 11 -166 11 -260 -1z m420 -64 c261 -57 576 -200
775 -351 84 -64 213 -184 170 -158 -75 45 -115 65 -175 87 -118 44 -126 39
-27 -17 167 -93 266 -176 389 -330 45 -55 102 -132 127 -171 47 -72 114 -223
105 -237 -3 -4 7 -40 21 -79 14 -40 24 -73 22 -75 -2 -2 -14 14 -26 36 -12 22
-24 40 -26 40 -2 0 7 -26 20 -57 12 -32 30 -83 39 -113 13 -47 13 -52 1 -36
-19 25 -19 18 0 -28 9 -20 13 -41 10 -46 -3 -5 4 -37 15 -71 31 -90 19 -95
-23 -9 -28 57 -35 66 -31 40 4 -19 19 -65 35 -102 37 -84 38 -119 2 -60 -29
48 -37 50 -24 6 15 -51 23 -171 15 -206 -7 -31 -8 -29 -20 37 -7 39 -20 167
-28 285 -17 226 -31 316 -72 440 -67 200 -216 396 -404 532 -34 24 -22 8 51
-68 179 -186 285 -382 333 -618 25 -120 18 -157 -9 -52 -27 101 -43 146 -92
261 -32 75 -120 235 -129 235 -2 0 8 -26 22 -57 63 -140 109 -282 138 -425 22
-106 20 -107 -14 -7 -29 88 -100 252 -106 246 -2 -2 5 -29 16 -61 37 -104 60
-220 65 -326 l5 -105 -16 70 c-15 70 -68 212 -83 228 -5 5 4 -47 20 -115 28
-121 34 -182 23 -225 -6 -22 -8 -21 -98 24 -50 25 -92 49 -94 54 -2 5 -12 9
-23 9 -11 0 -22 7 -25 15 -5 12 -33 15 -163 15 -167 0 -250 -14 -354 -59 -74
-32 -47 -8 37 33 41 20 105 43 142 52 68 15 222 21 285 10 28 -4 26 -3 -11 10
-63 22 -206 29 -282 15 -120 -23 -264 -111 -327 -199 -18 -26 -16 -25 68 15
47 24 122 52 166 63 95 25 265 37 315 22 l35 -10 -30 -1 c-43 -1 -171 -38
-214 -62 -20 -11 -27 -17 -16 -15 11 3 47 12 80 20 199 49 313 47 427 -6 90
-42 115 -67 163 -162 42 -82 45 -128 12 -177 -32 -47 -57 -49 -81 -4 -25 46
-78 93 -132 116 -23 11 -56 33 -74 49 l-32 30 23 20 c52 43 97 33 179 -40 25
-23 35 -36 23 -30 -12 5 -39 10 -60 10 l-38 0 48 -28 c27 -15 61 -47 78 -71
l29 -44 15 36 c8 20 15 44 15 54 -1 37 -39 100 -84 140 -81 71 -174 75 -316
13 -86 -37 -277 -88 -379 -100 -45 -6 -101 -14 -126 -19 -62 -12 -146 4 -232
44 -65 30 -76 39 -93 77 -11 24 -19 57 -19 73 0 27 2 26 14 -13 7 -24 22 -53
32 -64 40 -45 145 -78 245 -78 62 0 59 7 -8 19 -149 28 -237 90 -259 181 l-13
55 -21 -45 c-30 -65 -28 -126 8 -182 16 -25 43 -54 60 -64 18 -10 34 -29 37
-41 3 -11 -2 -64 -11 -117 -21 -123 -14 -140 108 -260 89 -88 127 -139 114
-152 -12 -12 -57 6 -92 37 -46 41 -153 189 -166 231 -21 65 -20 64 -30 40 -5
-13 -14 -20 -20 -16 -18 11 -59 106 -60 139 l-1 30 -9 -33 c-12 -41 4 -104 56
-220 20 -46 46 -127 56 -180 17 -81 27 -108 65 -162 46 -68 84 -154 84 -193 0
-18 2 -19 10 -7 16 25 11 112 -9 156 l-19 41 52 -35 c103 -70 219 -109 353
-117 l78 -5 -79 15 c-152 29 -294 89 -369 155 -38 33 -81 109 -92 160 l-8 34
58 -53 c116 -106 284 -198 436 -240 116 -32 116 -24 -1 14 -58 19 -123 45
-144 58 -39 22 -65 51 -55 61 3 3 57 -17 121 -43 207 -88 319 -122 424 -128
97 -6 106 -13 44 -32 l-35 -11 40 6 c56 8 119 47 147 91 22 37 23 46 23 238 0
198 -1 201 -31 285 -17 47 -34 93 -39 104 -6 14 -4 17 11 15 30 -6 72 -100 80
-181 8 -81 14 -77 49 35 l22 69 6 -124 c8 -154 36 -290 80 -382 33 -69 86
-143 73 -103 -3 10 -9 44 -12 75 -5 54 -4 56 10 32 31 -50 76 -180 76 -219 0
-29 -19 -77 -76 -187 -92 -180 -108 -201 -178 -248 -64 -43 -75 -44 -106 -11
-38 40 -80 49 -143 29 -54 -17 -54 -17 -111 9 -31 15 -71 29 -89 32 -38 7
-162 -18 -223 -44 -57 -26 -49 -3 14 39 65 43 112 53 217 46 72 -4 86 -3 70 6
-11 7 -45 17 -75 24 l-55 11 48 8 c70 11 117 0 215 -49 123 -61 154 -70 197
-56 82 27 92 45 175 307 l41 131 -35 50 c-40 55 -82 142 -102 211 -14 46 -14
45 -9 -39 2 -47 11 -110 20 -140 8 -30 15 -78 15 -106 0 -50 -24 -149 -38
-158 -4 -2 -6 32 -4 76 2 44 -2 112 -9 151 l-13 72 -8 -95 c-7 -97 -34 -217
-61 -280 l-15 -35 -2 55 c-2 55 -17 124 -19 87 -1 -16 -38 -97 -44 -97 -1 0
-1 33 0 73 l4 72 -26 -59 c-13 -32 -36 -74 -51 -93 l-25 -33 -67 6 c-96 8
-102 11 -72 36 l25 21 -55 -5 c-30 -3 -64 -9 -75 -14 -18 -7 -19 -6 -6 10 8 9
31 26 50 36 20 11 31 19 25 20 -21 0 -120 -32 -153 -51 -28 -17 -32 -17 -27
-4 11 29 -18 10 -51 -34 -38 -49 -38 -48 -18 8 l14 42 -28 -20 c-74 -53 -126
-142 -171 -289 -23 -76 -40 -88 -52 -36 -4 17 -6 0 -4 -43 2 -54 11 -87 34
-137 17 -36 27 -68 23 -70 -4 -3 -24 3 -45 13 -24 13 -36 15 -36 7 0 -19 23
-44 45 -48 27 -5 25 -32 -3 -36 -14 -2 -33 7 -52 27 -36 36 -39 26 -5 -20 77
-107 79 -110 83 -173 3 -41 -1 -74 -11 -98 -16 -37 -16 -37 -65 -31 -32 3 -52
1 -56 -6 -14 -22 -54 -12 -76 19 -28 39 -48 38 -90 -5 -19 -19 -41 -35 -50
-35 -9 0 -34 18 -55 40 -21 22 -45 40 -51 40 -7 0 -23 -15 -35 -32 -36 -53
-60 -68 -109 -67 -50 0 -62 7 -103 62 -15 20 -34 37 -40 37 -7 0 -31 -18 -52
-40 -21 -22 -46 -40 -55 -40 -9 0 -31 16 -50 35 -42 43 -62 44 -90 5 -22 -31
-62 -41 -76 -19 -4 7 -24 9 -56 6 -49 -6 -50 -6 -64 28 -18 44 -18 126 0 169
8 19 29 51 48 72 30 34 58 83 58 101 0 3 -10 -9 -23 -28 -27 -40 -73 -61 -87
-39 -11 18 -4 30 20 30 19 0 40 27 40 51 0 8 -6 7 -17 -4 -16 -13 -44 -22 -65
-18 -4 0 7 31 24 67 23 50 32 83 34 137 2 43 0 60 -4 43 -12 -52 -29 -40 -52
36 -45 148 -97 236 -172 290 -28 19 -30 19 -21 2 6 -10 13 -32 17 -48 7 -27 5
-26 -26 14 -35 46 -63 65 -51 34 6 -16 3 -16 -28 3 -32 20 -130 54 -153 53 -6
-1 5 -9 25 -20 19 -10 42 -27 50 -36 13 -16 12 -17 -6 -10 -11 5 -45 11 -75
14 l-55 5 25 -21 c30 -25 24 -28 -72 -36 l-68 -7 -29 41 c-17 23 -38 65 -47
93 -20 61 -28 49 -22 -34 2 -32 3 -59 1 -59 -6 0 -43 81 -44 97 -2 37 -17 -32
-19 -87 l-2 -55 -15 35 c-27 61 -53 183 -61 281 l-8 94 -13 -72 c-7 -39 -11
-107 -9 -151 2 -44 0 -78 -4 -76 -14 9 -38 108 -38 158 0 28 7 76 15 106 9 30
18 93 20 140 l5 85 -18 -60 c-22 -72 -53 -133 -99 -198 l-34 -49 41 -131 c83
-262 93 -280 175 -307 43 -14 74 -5 197 56 98 49 145 60 215 49 l48 -8 -55
-11 c-30 -7 -64 -17 -75 -24 -16 -9 -2 -10 70 -6 105 7 152 -3 217 -46 64 -42
71 -65 12 -39 -56 25 -188 51 -222 43 -15 -3 -54 -17 -86 -31 -59 -25 -60 -25
-113 -9 -63 20 -105 11 -143 -29 -31 -33 -42 -32 -106 11 -70 47 -86 68 -178
248 -57 110 -76 158 -76 187 0 39 45 169 76 219 14 24 15 22 10 -32 -3 -31 -9
-65 -12 -75 -13 -40 40 34 73 103 44 93 72 228 80 384 l6 125 22 -70 c35 -114
41 -118 49 -37 8 81 50 175 80 181 15 2 17 -1 11 -15 -5 -11 -22 -57 -39 -104
-30 -84 -30 -88 -31 -285 0 -193 1 -201 23 -238 28 -44 90 -83 147 -92 l40 -6
-38 15 c-21 8 -40 16 -43 19 -2 2 38 7 90 10 105 6 217 40 424 128 64 26 118
46 121 43 10 -10 -16 -39 -55 -61 -21 -13 -83 -37 -136 -55 -54 -18 -96 -34
-94 -36 9 -9 169 43 252 83 107 50 189 104 267 175 45 41 57 48 57 33 0 -34
-59 -140 -95 -172 -77 -67 -218 -127 -371 -156 l-79 -15 78 5 c135 8 250 47
355 118 28 20 52 34 52 33 0 -2 -9 -25 -21 -51 -33 -74 -25 -179 21 -270 24
-50 35 -64 38 -50 11 64 28 101 72 167 39 58 55 96 81 188 43 159 66 204 123
248 22 17 42 22 86 22 44 0 64 -5 86 -22 57 -44 80 -89 123 -248 23 -84 42
-130 70 -170 48 -70 69 -109 81 -157 8 -34 9 -32 7 27 -2 58 -7 72 -44 125
-31 46 -59 115 -113 273 -39 116 -69 216 -65 222 3 5 4 10 0 10 -3 0 -10 -12
-15 -26 -7 -19 -15 -25 -28 -21 -100 33 -104 33 -204 0 -13 -4 -21 2 -28 21
-5 14 -12 26 -14 26 -3 0 -3 -6 0 -13 2 -7 -18 -81 -47 -163 -28 -82 -58 -171
-66 -199 -9 -27 -36 -84 -62 -125 -33 -53 -47 -89 -51 -125 l-6 -50 -23 73
c-33 105 -27 139 48 260 53 86 63 111 80 195 11 53 36 134 56 179 60 133 68
171 53 252 -11 67 -11 69 11 87 31 25 60 24 70 -3 7 -20 9 -19 35 15 37 48 64
48 95 0 23 -36 24 -36 32 -15 20 53 90 6 104 -68 l8 -45 8 50 c10 58 3 109
-17 126 -8 6 -14 23 -14 36 0 20 -3 23 -14 14 -7 -6 -11 -22 -8 -37 l5 -25
-39 17 c-98 43 -130 43 -228 0 l-39 -17 5 25 c3 15 -1 31 -8 37 -11 9 -14 7
-14 -11 0 -13 -8 -32 -17 -43 -20 -21 -22 -63 -9 -187 7 -71 6 -77 -18 -105
l-25 -30 -9 25 c-11 26 -10 27 -31 -38 -14 -45 -123 -193 -173 -236 -41 -36
-88 -48 -88 -23 0 19 64 95 149 177 92 89 96 101 75 232 -8 51 -13 102 -10
113 3 11 19 29 37 39 17 10 44 39 60 64 36 57 38 117 7 182 -20 41 -22 43 -25
20 -17 -112 -103 -180 -267 -211 -67 -12 -70 -19 -8 -19 100 0 205 33 245 78
10 11 25 40 33 64 l14 43 -4 -47 c-5 -65 -33 -99 -113 -136 -80 -37 -167 -52
-228 -41 -25 5 -81 13 -126 19 -101 12 -293 63 -379 100 -88 38 -100 41 -168
41 -69 1 -120 -21 -169 -73 -59 -61 -74 -129 -41 -191 8 -17 12 -14 35 21 15
22 47 53 71 69 l46 28 -32 3 c-17 2 -41 -2 -54 -9 -21 -11 -22 -11 -9 4 24 29
105 85 135 93 20 5 35 1 56 -15 16 -11 35 -21 41 -21 25 0 -47 -62 -97 -85
-62 -27 -114 -72 -140 -120 -24 -45 -49 -43 -81 4 -33 49 -30 95 12 177 48 95
73 120 163 162 116 54 234 54 444 1 96 -24 104 -24 48 2 -57 26 -175 59 -215
60 l-30 1 30 9 c44 15 228 3 320 -21 44 -11 119 -39 166 -63 84 -40 86 -41 68
-15 -60 84 -205 174 -317 197 -97 20 -292 6 -320 -24 -4 -4 4 -4 18 0 42 13
211 7 283 -9 38 -9 102 -32 143 -52 82 -40 112 -65 40 -33 -100 44 -191 59
-357 59 -130 0 -158 -3 -163 -15 -3 -8 -13 -15 -22 -15 -9 0 -22 -7 -28 -15
-6 -8 -49 -30 -96 -49 -75 -31 -86 -33 -94 -19 -12 22 -2 119 24 227 12 48 19
90 16 93 -9 10 -58 -123 -82 -222 l-14 -60 5 105 c6 112 28 223 68 333 13 37
23 67 20 67 -9 0 -84 -171 -112 -256 -17 -49 -30 -86 -30 -83 -1 4 8 51 19
105 22 104 89 309 133 407 15 31 25 57 23 57 -2 0 -25 -36 -50 -79 -76 -132
-123 -247 -167 -406 -33 -119 -40 -80 -10 55 52 233 154 420 324 598 92 95 92
96 31 49 -317 -241 -454 -555 -454 -1046 0 -170 -17 -355 -39 -413 -22 -59
-56 275 -47 456 19 377 127 687 337 970 96 129 197 202 374 272 l60 24 -55 -6
c-30 -4 -75 -12 -100 -20 l-45 -13 50 45 c107 96 313 218 480 284 165 66 280
99 465 134 57 10 377 -3 450 -19z m-1853 -1497 c-3 -8 -6 -5 -6 6 -1 11 2 17
5 13 3 -3 4 -12 1 -19z m3150 0 c-3 -8 -6 -5 -6 6 -1 11 2 17 5 13 3 -3 4 -12
1 -19z m-1137 -450 c-35 -50 -60 -150 -44 -175 6 -10 23 -20 39 -24 38 -11 70
-43 107 -108 47 -82 83 -117 197 -194 88 -59 192 -114 331 -175 53 -23 -44 0
-140 34 -188 67 -328 163 -404 277 -61 93 -78 110 -127 131 -62 26 -65 35 -45
142 19 101 42 134 92 134 l24 0 -30 -42z m-1649 -73 c-34 -39 -65 -95 -75
-138 -13 -54 -7 -201 12 -279 33 -134 57 -149 177 -117 120 33 268 60 313 57
39 -3 25 -9 -150 -72 -272 -96 -349 -96 -400 5 -37 71 -16 376 33 476 15 30
37 55 67 74 25 16 48 29 50 29 2 0 -10 -16 -27 -35z m372 -1267 c70 -47 110
-120 110 -198 0 -43 -8 -72 -38 -135 -21 -44 -41 -105 -45 -135 -6 -47 -8 -50
-10 -20 -2 19 -4 101 -4 181 l-1 145 -40 81 c-27 54 -35 78 -24 73 26 -15 71
-80 96 -139 19 -48 23 -52 23 -26 0 39 -39 122 -78 163 -35 37 -32 40 11 10z
m1686 -10 c-39 -39 -79 -122 -79 -163 0 -26 4 -22 23 26 25 59 70 124 96 139
11 5 3 -19 -24 -73 l-40 -81 -1 -145 c0 -80 -2 -162 -4 -181 -2 -30 -4 -27
-10 20 -4 30 -24 91 -45 135 -30 62 -38 92 -38 135 0 77 38 149 106 196 46 33
54 29 16 -8z m-1877 -168 l9 -24 21 32 c11 18 21 32 22 32 1 0 -4 -35 -12 -77
-14 -83 -11 -218 9 -286 6 -22 8 -41 5 -44 -2 -3 -18 39 -35 93 -31 103 -56
225 -65 329 l-6 60 21 -45 c12 -25 25 -56 31 -70z m2103 53 c-17 -150 -86
-436 -101 -420 -3 3 -1 22 5 44 19 71 23 204 9 286 -8 42 -13 77 -12 77 1 0
11 -14 22 -31 l20 -32 20 46 c11 25 23 55 27 66 12 38 17 22 10 -36z m-1823
-566 c-5 -67 -27 -74 -26 -9 0 34 20 80 29 70 1 -2 0 -29 -3 -61z m50 -37 c-4
-25 -12 -45 -17 -45 -18 0 -17 82 2 117 l18 33 3 -30 c1 -16 -1 -50 -6 -75z
m391 48 c43 -63 54 -123 37 -202 -11 -53 -13 -56 -41 -56 -17 0 -43 7 -58 14
-27 14 -28 19 -35 108 -6 92 2 146 25 174 20 24 35 16 72 -38z m693 25 c20
-31 31 -156 20 -217 -8 -40 -44 -66 -95 -66 -28 0 -30 3 -41 57 -17 80 -7 138
36 201 20 28 42 52 49 52 7 0 21 -12 31 -27z m329 -3 c17 -32 20 -106 6 -115
-5 -3 -12 -1 -16 4 -8 14 -19 141 -12 141 4 0 13 -13 22 -30z m62 -37 c3 -26
1 -43 -7 -48 -16 -10 -16 -8 -23 59 -5 53 -4 58 9 44 9 -8 18 -33 21 -55z
m-1377 31 c8 -8 15 -51 18 -95 4 -76 4 -79 -17 -79 -12 0 -33 11 -47 26 -22
21 -25 31 -20 62 17 95 37 122 66 86z m144 -62 c20 -54 21 -145 1 -162 -18
-15 -46 -6 -72 23 -18 20 -19 31 -13 104 3 45 12 89 20 98 12 15 15 15 30 -2
10 -10 25 -37 34 -61z m996 -34 c7 -86 4 -110 -11 -87 -6 10 -9 8 -9 -9 0 -30
-42 -51 -65 -32 -20 17 -20 107 2 162 41 107 73 94 83 -34z m109 80 c25 -80
24 -105 -3 -132 -14 -15 -35 -26 -47 -26 -21 0 -21 3 -17 79 5 78 17 111 43
111 8 0 18 -15 24 -32z m-743 6 c14 -9 30 -26 36 -37 13 -25 39 -232 31 -252
-7 -21 -33 -19 -34 3 -1 16 -2 16 -6 0 -4 -15 -16 -18 -69 -18 -106 0 -121 34
-90 209 10 55 20 80 36 93 28 22 63 23 96 2z"/>
<path d="M4956 5640 c-62 -19 -91 -74 -132 -247 -14 -62 -35 -123 -49 -143
-38 -56 -78 -180 -116 -358 -25 -120 -22 -178 12 -248 l24 -49 5 32 5 32 44
-29 c50 -34 112 -56 135 -47 8 3 25 25 37 49 19 36 20 49 12 81 -9 32 -7 48
11 94 37 97 75 97 111 2 17 -44 19 -62 12 -95 -9 -36 -6 -48 14 -85 13 -24 33
-45 43 -47 28 -6 104 27 144 62 28 24 33 26 24 9 -7 -12 -27 -33 -44 -47 -45
-35 -20 -33 29 3 47 34 83 101 83 157 1 92 -93 426 -135 484 -15 20 -33 74
-49 143 -30 129 -64 209 -98 230 -31 20 -86 28 -122 17z m-2 -90 c-18 -26 -36
-82 -55 -166 -17 -77 -39 -144 -56 -172 -78 -135 -123 -276 -123 -391 0 -54
31 -122 72 -156 33 -28 30 -32 -10 -11 -41 21 -81 68 -92 107 -17 60 19 279
60 358 10 20 33 59 52 87 28 41 39 72 57 169 25 135 39 168 84 195 18 11 33
20 35 20 1 0 -10 -18 -24 -40z"/>
<path d="M3670 5270 c55 -47 98 -62 195 -72 52 -4 137 -23 200 -42 61 -19 130
-40 155 -46 29 -8 56 -25 80 -51 20 -22 45 -39 57 -39 34 0 75 -19 106 -48
l27 -26 -11 34 c-7 19 -21 46 -33 59 -20 23 -20 23 -1 13 23 -12 74 -65 98
-102 l17 -24 0 24 c-1 42 -35 104 -80 143 -63 54 -126 72 -239 70 -89 -2 -99
-1 -174 33 -75 34 -83 36 -187 35 -105 -1 -110 0 -177 34 l-68 35 35 -30z"/>
<path d="M6300 5267 c-52 -31 -60 -32 -173 -34 -111 -2 -123 -5 -195 -37 -72
-33 -83 -35 -172 -33 -114 2 -177 -16 -240 -70 -45 -39 -79 -101 -80 -143 l0
-24 17 24 c24 37 75 90 98 102 18 10 18 8 -3 -14 -12 -14 -27 -40 -32 -58
l-10 -33 28 26 c30 28 71 47 105 47 12 0 37 17 57 39 24 26 51 43 80 51 25 6
95 27 155 46 64 20 148 38 200 43 97 9 139 24 195 71 44 37 39 37 -30 -3z"/>
<path d="M4628 4455 c-4 -16 -18 -46 -32 -65 -65 -89 -106 -155 -106 -170 0
-23 26 -44 45 -36 11 4 15 20 15 59 0 49 4 58 40 97 44 47 53 71 48 116 l-3
29 -7 -30z"/>
<path d="M5360 4447 c0 -46 11 -69 56 -114 30 -30 34 -39 34 -89 0 -39 4 -56
15 -60 19 -8 45 13 45 36 0 16 -56 107 -100 161 -12 14 -27 43 -35 65 l-14 39
-1 -38z"/>
<path d="M5192 4349 c-14 -118 -11 -136 24 -145 49 -12 56 0 33 58 -12 29 -26
85 -33 123 l-12 70 -12 -106z"/>
<path d="M4786 4390 c-5 -30 -19 -83 -32 -118 -26 -69 -20 -81 31 -68 34 9 38
34 22 146 l-14 95 -7 -55z"/>
<path d="M4932 3815 c0 -16 2 -22 5 -12 2 9 2 23 0 30 -3 6 -5 -1 -5 -18z"/>
<path d="M1790 4379 c78 -24 118 -47 177 -103 137 -128 242 -329 334 -645 38
-131 39 -150 8 -151 -3 0 -16 39 -29 88 -57 219 -156 458 -238 579 -147 217
-341 239 -465 53 -28 -41 -19 -9 12 45 37 64 78 103 127 120 172 61 -467 -88
-946 -222 -338 -94 -386 -110 -425 -145 -56 -48 -97 -149 -120 -291 -4 -23
-13 -41 -23 -44 -63 -23 -114 -90 -137 -180 -16 -60 -19 -249 -7 -333 6 -36 2
-54 -15 -89 -46 -89 -26 -225 57 -397 37 -76 61 -112 96 -143 26 -22 53 -41
60 -41 6 0 31 -35 54 -77 106 -194 212 -322 302 -363 49 -22 86 -25 140 -10
36 10 40 9 108 -43 68 -52 123 -77 168 -77 11 0 121 29 244 65 245 70 491 134
753 194 94 22 159 40 145 40 -32 1 -121 43 -139 64 -13 16 -11 16 15 2 42 -21
127 -19 174 5 42 21 87 79 113 148 48 121 60 386 32 659 -15 140 -12 175 13
159 16 -10 35 -320 29 -475 -8 -223 -53 -406 -117 -489 -12 -15 -38 -37 -58
-49 -22 -14 -30 -23 -20 -23 31 0 101 64 134 124 82 148 102 419 60 803 l-12
112 51 10 c288 58 873 133 1315 170 495 42 615 46 1245 46 762 -1 1150 -23
1815 -106 319 -39 775 -110 785 -121 2 -2 -1 -30 -6 -63 -22 -161 -31 -405
-20 -533 14 -156 30 -225 74 -312 33 -65 100 -130 135 -130 9 0 2 8 -16 17
-124 61 -193 345 -177 728 10 252 20 314 46 288 7 -7 5 -60 -7 -174 -12 -119
-15 -211 -11 -334 6 -183 21 -265 62 -343 32 -62 43 -74 89 -106 42 -28 119
-36 171 -16 19 7 24 7 19 -1 -10 -16 -105 -59 -134 -60 -14 0 34 -14 105 -30
244 -55 540 -131 765 -197 141 -42 244 -66 275 -67 58 0 115 26 187 87 45 37
49 39 85 29 55 -16 92 -13 141 9 90 41 196 169 302 363 23 42 48 77 54 77 7 0
34 19 60 41 53 47 134 200 161 304 21 82 19 180 -4 231 -17 37 -18 59 -14 206
5 149 4 172 -15 234 -24 78 -69 140 -118 160 -27 11 -34 21 -39 51 -30 187
-86 291 -176 327 -63 26 -497 147 -764 214 -412 104 -666 158 -551 117 48 -17
90 -56 125 -117 15 -27 31 -45 35 -41 4 4 4 -1 0 -11 -5 -14 -4 -17 4 -12 7 4
12 3 12 -3 0 -22 -18 -19 -28 4 -6 14 -30 45 -53 70 -91 98 -223 94 -339 -12
-109 -98 -235 -361 -315 -658 -15 -55 -28 -101 -30 -103 -1 -1 -9 0 -18 3 -13
6 -12 17 9 98 39 143 82 262 138 382 115 242 230 369 374 411 l47 14 -50 -6
c-206 -24 -369 -266 -505 -744 -22 -79 -41 -145 -43 -146 -2 -2 -52 6 -112 17
-432 77 -1103 154 -1650 189 -495 31 -1303 31 -1760 0 -77 -5 -160 -10 -185
-11 -25 -1 -37 -3 -26 -6 10 -3 100 0 200 6 1200 75 2555 -15 3719 -245 99
-19 184 -33 190 -30 7 2 3 5 -9 5 -34 1 -35 12 -6 52 34 48 67 67 90 53 88
-54 57 -337 -47 -442 -58 -58 -101 -34 -117 66 l-6 40 36 -8 c44 -10 60 3 76
58 16 51 25 172 14 172 -5 0 -8 -19 -6 -41 3 -23 -4 -70 -13 -106 l-18 -64
-31 7 c-77 17 -104 40 -86 73 20 38 -12 73 -105 120 -113 56 -338 98 -953 181
l-82 11 -45 -32 c-44 -32 -45 -33 -27 -53 38 -44 43 -59 7 -23 -36 37 -64 45
-33 10 27 -32 30 -49 4 -20 -30 33 -40 34 -30 5 6 -20 5 -21 -9 -10 -9 8 -21
11 -28 7 -6 -4 -15 -1 -20 6 -8 12 -11 12 -19 -1 -9 -13 -11 -13 -20 0 -6 9
-13 11 -17 5 -5 -5 -15 -11 -23 -13 -8 -2 -12 0 -7 4 4 4 -2 18 -14 30 -19 21
-20 24 -6 38 14 14 19 12 48 -21 19 -23 34 -33 37 -25 4 14 33 17 29 3 -4 -17
18 -10 45 15 15 13 30 24 33 24 4 0 22 11 41 24 22 15 31 26 22 28 -7 3 -30
-9 -50 -25 l-37 -29 -25 25 c-15 15 -21 28 -15 34 5 5 0 9 -15 9 -14 0 -23 -3
-20 -7 6 -10 -25 -33 -33 -25 -4 4 -1 11 7 17 12 7 12 11 2 17 -19 13 -92 14
-92 1 0 -6 9 -8 20 -4 13 4 20 2 20 -6 0 -7 -3 -9 -7 -6 -3 4 -17 -3 -30 -15
-12 -12 -26 -18 -30 -14 -4 4 -1 12 7 17 12 8 12 12 2 16 -9 3 -10 9 -3 17 7
9 4 12 -14 12 -23 0 -23 -1 -9 -18 15 -15 15 -19 1 -32 -13 -13 -19 -11 -50
23 -30 33 -41 38 -74 37 -21 -1 -44 -6 -52 -10 -8 -5 -16 -4 -21 4 -12 19 -60
21 -60 2 0 -8 -3 -12 -7 -9 -3 4 -17 -3 -30 -15 -12 -12 -26 -19 -29 -15 -8 8
15 31 41 41 14 6 16 10 7 13 -7 3 -24 -5 -37 -17 -22 -21 -25 -21 -41 -6 -20
20 -11 34 11 16 12 -10 15 -10 15 2 0 10 -14 15 -50 17 -32 1 -50 -2 -50 -9 0
-7 8 -9 19 -5 27 8 48 -20 28 -40 -14 -13 -19 -11 -47 21 -17 20 -34 33 -37
30 -4 -3 4 -14 16 -25 13 -12 18 -22 12 -26 -11 -6 -61 37 -61 53 0 5 -32 10
-72 11 -39 1 -75 4 -80 7 -21 13 -4 -13 19 -30 20 -15 25 -16 21 -4 -10 26 86
18 114 -9 12 -13 18 -26 14 -30 -5 -5 -11 -2 -13 5 -3 6 -9 12 -15 12 -6 0 -6
-6 2 -15 9 -11 9 -17 -2 -29 -11 -12 -18 -10 -50 22 -21 20 -38 31 -38 24 0
-7 6 -12 13 -12 13 -1 -47 -56 -78 -71 -11 -6 -7 1 10 15 41 35 24 44 -22 11
l-38 -28 34 33 33 32 -33 34 c-18 19 -30 34 -26 34 3 0 25 -19 47 -41 23 -23
43 -39 47 -36 3 3 -2 13 -10 21 -9 9 -25 28 -37 43 l-22 28 -706 0 c-389 0
-723 -4 -742 -8 -21 -5 -46 -22 -65 -44 l-29 -35 32 -29 c40 -36 32 -38 -12
-4 l-32 25 -34 -35 c-23 -24 -36 -31 -41 -23 -6 9 -11 9 -22 -1 -12 -9 -16 -9
-20 1 -4 10 -7 10 -15 -1 -8 -11 -14 -10 -33 8 -12 11 -17 21 -11 21 7 0 12 5
12 12 0 6 -13 -1 -30 -17 -16 -15 -27 -32 -24 -37 8 -12 -19 -5 -28 7 -5 6
-11 5 -17 -4 -7 -11 -16 -8 -42 18 -19 17 -28 31 -20 31 7 0 22 -10 33 -22 16
-18 21 -20 28 -8 7 11 11 11 24 1 11 -9 16 -10 16 -2 0 6 -4 11 -10 11 -5 0
-10 5 -10 11 0 6 9 8 23 3 22 -6 22 -6 -2 15 l-24 21 27 28 c19 21 22 29 11
29 -8 0 -15 -4 -15 -9 0 -16 -50 -59 -61 -53 -6 4 1 17 18 31 15 13 22 24 15
24 -7 0 -26 -16 -43 -35 -27 -30 -33 -33 -45 -21 -20 21 -17 28 8 20 21 -6 21
-6 4 11 -15 15 -19 16 -27 4 -8 -12 -10 -12 -18 1 -6 8 -13 11 -18 7 -4 -5 -1
-12 7 -17 8 -5 11 -12 7 -16 -8 -8 -39 15 -33 25 3 4 -6 7 -19 7 -13 0 -21 -4
-19 -8 3 -4 10 -8 15 -8 15 0 43 -30 35 -37 -3 -3 -14 1 -24 10 -10 10 -24 17
-30 17 -7 0 -12 5 -12 10 0 6 -5 10 -12 10 -6 0 -3 -9 7 -20 12 -14 14 -20 5
-20 -7 0 -21 10 -31 22 -11 11 -22 18 -26 14 -4 -4 -1 -11 7 -16 12 -8 9 -15
-17 -42 -18 -18 -33 -27 -33 -20 0 6 -5 12 -11 12 -8 0 -9 -4 0 -13 16 -20 1
-29 -17 -11 -13 14 -12 19 16 47 18 17 32 26 32 19 0 -6 5 -12 11 -12 8 0 9 4
0 13 -6 8 -8 16 -5 20 3 3 -2 4 -13 3 -10 -2 -18 -7 -18 -12 1 -16 -45 -55
-56 -49 -6 4 -1 14 12 26 12 11 19 22 16 26 -4 3 -16 -6 -28 -21 l-21 -27 -20
23 c-16 19 -21 20 -29 8 -7 -11 -11 -12 -17 -3 -4 7 -16 10 -27 8 -11 -2 -26
-4 -33 -4 -7 -1 -10 -6 -7 -12 4 -6 9 -8 12 -5 3 3 12 -2 20 -10 12 -12 13
-18 3 -29 -8 -9 -8 -15 -2 -15 6 0 12 6 15 13 3 9 7 9 20 -2 10 -7 17 -9 17
-3 0 6 -6 12 -12 15 -7 2 -10 8 -6 12 4 4 14 2 23 -5 9 -7 15 -8 15 -2 0 6 -6
12 -12 15 -7 2 -10 8 -6 12 11 12 38 -14 31 -31 -3 -8 0 -14 6 -14 6 0 11 -5
11 -11 0 -6 -7 -8 -16 -5 -8 3 -22 0 -30 -8 -21 -22 -17 -32 5 -12 15 13 20
14 24 4 4 -10 8 -10 16 2 9 13 14 12 33 -8 15 -15 18 -22 8 -20 -8 2 -18 8
-22 13 -5 6 -11 5 -16 -3 -5 -7 -16 -10 -24 -7 -9 4 -19 2 -23 -4 -4 -7 -14
-4 -27 9 -12 11 -24 17 -27 14 -3 -4 0 -9 7 -11 16 -6 15 -20 -3 -27 -8 -3
-14 -2 -12 2 1 4 -2 7 -8 7 -5 0 -9 -3 -8 -6 1 -3 -4 -6 -12 -6 -8 0 -12 4 -9
9 3 4 -1 8 -10 8 -8 0 -16 -6 -19 -12 -2 -7 -8 -10 -12 -6 -4 4 0 14 9 24 13
13 19 14 31 4 11 -9 15 -9 15 -1 0 6 -4 11 -10 11 -5 0 -10 5 -10 11 0 6 9 8
23 4 16 -5 18 -4 8 4 -12 8 -12 12 -2 25 20 24 1 19 -20 -5 -15 -18 -21 -20
-34 -9 -9 7 -15 8 -15 2 0 -6 6 -12 13 -15 6 -2 9 -8 5 -12 -10 -10 -40 14
-32 26 9 15 -42 61 -62 57 -15 -3 -11 -8 20 -28 22 -13 35 -25 29 -27 -6 -2
-25 9 -43 26 -18 16 -39 27 -47 24 -10 -4 0 -15 31 -36 26 -16 45 -30 44 -31
-2 0 -21 -17 -42 -36 l-40 -35 27 33 c15 19 27 37 27 40 0 4 -18 20 -40 35
l-40 28 -182 -26 c-346 -49 -543 -85 -610 -110 -37 -13 -113 -36 -169 -50 -56
-14 -111 -32 -124 -41 -12 -8 -34 -37 -49 -64 -16 -29 -32 -47 -39 -44 -7 2
-25 28 -40 57 l-27 52 3 -67 c2 -48 8 -73 21 -87 17 -18 17 -21 3 -21 -28 0
-74 198 -49 214 12 7 366 77 547 108 77 12 131 24 120 26 -11 1 -69 -6 -130
-17 -60 -11 -110 -19 -112 -17 -2 1 -18 59 -37 127 -134 485 -304 739 -511
763 -47 5 -48 5 -15 -5z m-197 -72 c-49 -52 -113 -229 -113 -311 0 -22 -3 -27
-9 -17 -29 46 -48 -334 -22 -454 22 -107 44 -177 51 -166 3 6 14 -30 24 -80
21 -114 95 -371 135 -474 16 -42 27 -84 24 -93 -4 -8 -2 -13 3 -10 5 3 9 -6
10 -20 2 -58 159 -322 183 -308 4 3 24 -14 44 -38 20 -24 63 -64 96 -89 l61
-45 -92 -22 c-59 -14 -104 -19 -129 -15 -72 12 -166 92 -241 205 l-30 45 51
-55 52 -55 -54 80 c-30 44 -80 127 -111 185 -61 114 -69 122 -32 30 44 -107
10 -54 -49 77 -98 216 -200 556 -219 728 -6 47 -5 45 15 -23 12 -40 23 -72 25
-70 1 2 -6 55 -18 118 -21 120 -29 354 -16 460 5 39 4 46 -2 25 -5 -16 -16
-77 -24 -135 l-15 -105 5 114 c10 233 72 418 161 476 26 18 243 76 252 68 3
-2 -5 -13 -16 -26z m7054 -45 c92 -65 166 -305 162 -527 l-1 -70 -14 108 c-7
59 -14 113 -16 119 -2 6 -4 -69 -4 -168 -1 -138 -5 -205 -22 -294 -11 -63 -19
-116 -18 -118 2 -2 13 30 25 70 20 68 21 69 16 24 -13 -121 -82 -379 -154
-575 -36 -95 -137 -311 -146 -311 -3 0 -1 8 4 19 17 31 51 121 46 121 -3 0
-23 -36 -45 -80 -22 -44 -69 -123 -105 -177 l-65 -98 51 55 c38 40 46 45 29
20 -76 -114 -161 -189 -239 -210 -36 -9 -57 -8 -137 10 l-94 22 48 34 c26 20
71 61 101 92 30 31 48 48 40 37 -10 -15 -7 -15 14 4 59 53 159 218 181 301 l7
25 -15 -25 c-18 -30 -21 -21 -5 14 7 14 17 23 22 19 6 -4 8 0 4 9 -3 9 8 51
24 93 38 96 112 354 136 468 9 47 20 84 24 81 10 -6 47 140 60 241 17 130 -5
395 -32 395 -5 0 -9 10 -9 22 0 72 -70 257 -111 294 -10 9 -19 20 -19 24 0 14
227 -47 257 -68z m-6781 13 c101 -59 229 -244 308 -445 35 -88 110 -340 103
-346 -2 -2 -27 67 -55 154 -84 253 -179 430 -277 521 -57 53 -100 71 -165 71
-101 0 -163 -62 -211 -210 -22 -68 -24 -39 -4 42 56 214 165 292 301 213z
m6447 7 c55 -33 114 -152 132 -268 4 -29 -1 -22 -19 29 -25 70 -32 82 -75 130
-57 63 -149 79 -227 39 -118 -60 -247 -275 -344 -571 -29 -89 -55 -160 -56
-158 -2 2 7 43 20 93 70 259 161 455 277 595 107 128 202 164 292 111z m-7068
-78 c-39 -64 -69 -149 -86 -244 -18 -99 -15 -365 6 -505 10 -66 19 -131 19
-145 1 -14 4 -27 7 -30 3 -3 14 -39 23 -82 24 -110 91 -327 137 -444 21 -55
39 -108 39 -118 0 -50 113 -245 182 -314 73 -73 145 -134 187 -160 l45 -26
-90 -23 c-56 -15 -106 -22 -134 -19 l-45 5 35 -14 c34 -13 34 -13 7 -14 -43
-1 -120 43 -191 110 -153 143 -269 349 -382 682 -30 88 -54 165 -53 171 0 6
24 -56 53 -139 101 -289 218 -510 350 -665 44 -52 129 -120 150 -120 6 0 -1 7
-14 16 -60 41 -158 150 -204 229 -16 27 -15 26 11 -5 15 -19 48 -55 72 -80
l43 -45 -29 40 c-57 77 -130 190 -157 243 -15 30 -30 51 -33 48 -3 -3 13 -43
35 -88 49 -99 29 -76 -33 37 -117 213 -255 611 -280 805 -5 42 -4 40 20 -25
13 -38 23 -59 20 -45 -48 241 -50 258 -50 433 0 97 -1 173 -3 168 -2 -6 -10
-56 -17 -113 l-14 -103 4 110 c10 208 51 342 130 420 47 47 56 52 155 77 58
14 108 26 112 27 3 1 -9 -24 -27 -55z m7599 25 c156 -37 205 -91 252 -278 17
-68 26 -133 29 -221 4 -119 4 -121 -5 -40 -18 171 -25 164 -26 -27 0 -149 -5
-209 -21 -288 -34 -160 -34 -164 -8 -90 31 90 31 59 1 -76 -104 -459 -345
-934 -541 -1069 -74 -51 -117 -57 -223 -30 -51 12 -92 24 -92 26 0 2 19 16 43
32 23 17 63 51 88 76 26 25 51 46 56 46 10 0 54 51 107 125 35 47 106 196 106
221 0 10 18 63 39 118 81 207 156 487 187 703 20 136 23 412 5 513 -17 95 -51
187 -92 247 -18 25 -26 44 -18 41 8 -3 58 -16 113 -29z m-7591 -64 c-9 -19
-18 -33 -21 -31 -4 5 26 66 33 66 3 0 -3 -16 -12 -35z m7528 -54 c27 -72 49
-190 48 -249 -1 -36 -4 -29 -10 31 -10 97 -32 185 -64 257 -14 30 -18 46 -10
36 8 -11 24 -45 36 -75z m-7226 59 c3 -5 1 -10 -4 -10 -6 0 -11 5 -11 10 0 6
2 10 4 10 3 0 8 -4 11 -10z m-634 -42 c-37 -56 -66 -135 -82 -228 -17 -100
-14 -349 6 -485 32 -219 112 -509 201 -725 26 -63 46 -123 46 -133 0 -9 3 -15
8 -12 6 3 7 0 4 -8 -7 -19 46 -124 101 -202 47 -66 156 -168 248 -233 l59 -41
-39 -10 c-169 -45 -183 -46 -258 -8 -48 24 -148 123 -195 192 -33 49 -32 48
33 -20 l67 -70 -69 94 c-38 51 -91 131 -116 177 -26 46 -49 84 -51 84 -5 0 11
-41 41 -102 14 -29 19 -44 10 -33 -27 34 -141 265 -183 370 -71 179 -159 478
-149 508 1 5 11 -17 21 -48 25 -81 29 -63 5 28 -31 122 -49 262 -50 397 -1 92
-4 115 -10 85 -6 -29 -7 -17 -4 40 5 94 36 212 71 272 37 65 83 95 186 124
132 38 133 38 99 -13z m8249 15 c94 -25 110 -33 151 -73 32 -31 53 -64 69
-105 27 -74 50 -193 49 -248 l-2 -42 -7 40 c-5 26 -8 -6 -9 -95 -1 -140 -18
-267 -51 -404 -11 -44 -18 -81 -17 -83 2 -2 14 25 25 59 32 96 26 45 -13 -107
-118 -461 -393 -952 -586 -1043 -49 -24 -125 -29 -175 -12 -16 5 -49 14 -73
20 l-45 12 45 28 c75 47 217 178 263 243 52 73 106 178 111 215 2 15 26 84 54
154 237 593 286 1210 115 1435 -14 18 -21 33 -17 33 4 0 55 -12 113 -27z
m-674 -116 c28 -165 8 -480 -47 -732 -25 -116 -80 -317 -86 -312 -2 3 10 53
26 113 37 136 66 283 86 439 18 136 21 412 5 495 -5 30 -11 64 -12 75 -2 11
-7 23 -12 26 -5 4 -5 13 -1 20 12 18 22 -15 41 -124z m-7286 23 c-10 -36 -19
-58 -19 -49 -1 19 29 122 34 117 2 -2 -5 -32 -15 -68z m312 8 c-20 -88 -19
-370 2 -523 22 -162 51 -305 92 -454 19 -68 33 -126 31 -128 -15 -14 -112 399
-138 592 -26 182 -11 575 20 575 4 0 1 -28 -7 -62z m-599 17 c-9 -19 -18 -33
-21 -31 -4 5 26 66 33 66 3 0 -3 -16 -12 -35z m-328 -32 c-14 -21 -37 -74 -52
-118 -24 -72 -27 -99 -30 -265 -5 -200 5 -294 52 -503 38 -169 122 -419 200
-595 20 -46 34 -86 31 -89 -8 -8 41 -112 81 -173 43 -66 132 -170 142 -167 4
1 31 -19 61 -44 30 -26 76 -60 102 -76 l47 -30 -88 -27 c-112 -33 -134 -33
-209 4 -60 30 -158 123 -212 200 -13 19 7 4 44 -35 71 -74 68 -68 -29 61 -34
44 -78 110 -100 147 -45 77 -58 82 -21 8 44 -85 21 -57 -39 48 -100 177 -214
464 -265 664 -25 100 -23 121 4 46 10 -27 20 -49 21 -47 2 2 -8 46 -22 98 -35
138 -53 269 -54 405 -2 87 -4 107 -9 75 l-7 -45 -1 45 c-2 65 32 218 61 275
40 78 72 103 188 140 57 18 110 34 117 34 8 1 3 -13 -13 -36z m8539 -115 c9
-42 15 -99 15 -125 -1 -38 -3 -31 -10 32 -7 68 -25 143 -53 230 -3 11 2 2 13
-20 11 -22 26 -75 35 -117z m321 133 c33 -10 79 -24 103 -30 110 -30 184 -165
196 -361 3 -54 3 -64 -3 -35 -6 29 -9 6 -10 -87 -1 -131 -25 -298 -60 -423
-11 -38 -18 -71 -16 -73 2 -2 12 21 24 50 31 83 25 32 -14 -104 -46 -160 -104
-315 -172 -458 -51 -109 -140 -270 -149 -270 -2 0 10 27 27 61 16 34 29 63 27
65 -2 2 -20 -25 -40 -59 -20 -34 -64 -100 -99 -146 -102 -134 -105 -140 -33
-66 37 39 57 54 44 35 -46 -66 -149 -166 -197 -192 -78 -42 -111 -44 -219 -12
l-96 28 34 17 c18 9 66 45 107 79 40 34 70 56 66 49 -16 -28 48 38 95 97 61
75 128 199 134 245 3 18 20 68 39 109 54 117 133 345 171 492 110 417 108 784
-3 961 -17 26 -27 47 -23 47 4 0 34 -9 67 -19z m-8864 -88 c-12 -20 -14 -14
-5 12 4 9 9 14 11 11 3 -2 0 -13 -6 -23z m293 -12 c-4 -17 -9 -30 -11 -27 -3
2 -2 19 2 36 9 41 17 33 9 -9z m303 -18 c-3 -10 -5 -4 -5 12 0 17 2 24 5 18 2
-7 2 -21 0 -30z m8269 -93 c7 -36 13 -92 12 -125 -1 -55 -1 -52 -9 27 -4 48
-14 112 -23 142 -27 91 -27 92 -10 56 9 -19 22 -64 30 -100z m-999 98 c-3 -8
-6 -5 -6 6 -1 11 2 17 5 13 3 -3 4 -12 1 -19z m-7886 -29 c-5 -13 -10 -19 -10
-12 -1 15 10 45 15 40 3 -2 0 -15 -5 -28z m7966 -51 c-2 -18 -4 -6 -4 27 0 33
2 48 4 33 2 -15 2 -42 0 -60z m-7070 -9 c-5 -72 3 -246 17 -384 l5 -50 -9 43
c-21 96 -31 251 -25 360 4 61 10 112 13 112 3 0 2 -36 -1 -81z m-600 24 c-3
-10 -5 -4 -5 12 0 17 2 24 5 18 2 -7 2 -21 0 -30z m310 -55 c-2 -18 -4 -4 -4
32 0 36 2 50 4 33 2 -18 2 -48 0 -65z m-626 2 c-5 -25 -9 -35 -10 -24 -1 28
11 92 16 79 1 -6 -1 -30 -6 -55z m306 -62 c-2 -18 -4 -4 -4 32 0 36 2 50 4 33
2 -18 2 -48 0 -65z m7689 -65 c-4 -71 -13 -162 -21 -203 -8 -41 -12 -57 -10
-35 2 22 9 113 16 203 7 89 14 162 17 162 3 0 2 -57 -2 -127z m-8009 -165 c-1
-46 -3 -9 -3 82 0 91 2 128 3 83 2 -46 2 -120 0 -165z m640 45 c-2 -21 -4 -6
-4 32 0 39 2 55 4 38 2 -18 2 -50 0 -70z m787 46 c35 -30 84 -106 105 -161 17
-44 -6 -33 -30 15 -71 139 -154 173 -202 83 -19 -36 -22 -56 -22 -161 1 -139
15 -198 77 -318 48 -92 87 -129 132 -125 26 3 35 11 55 51 15 31 26 73 29 118
2 38 9 69 15 69 17 0 1 -174 -21 -224 -35 -77 -81 -86 -145 -27 -47 44 -103
147 -137 256 -28 88 -38 269 -20 344 26 109 94 142 164 80z m6199 2 c60 -72
64 -284 8 -450 -70 -208 -177 -316 -245 -248 -31 31 -45 80 -53 185 -4 59 -3
82 6 82 7 0 11 -19 11 -48 0 -61 25 -147 51 -173 49 -49 110 -6 174 124 57
116 78 212 72 332 -4 101 -26 160 -63 177 -48 22 -112 -29 -163 -129 -12 -24
-26 -43 -31 -43 -25 0 63 154 111 194 43 36 90 35 122 -3z m664 -53 c-2 -18
-4 -6 -4 27 0 33 2 48 4 33 2 -15 2 -42 0 -60z m-8650 35 c-54 -57 -77 -133
-100 -328 -2 -16 -5 -1 -5 35 -2 74 19 183 43 232 20 38 64 88 79 88 5 0 -2
-12 -17 -27z m6013 21 c0 -8 -33 -40 -38 -35 -2 2 -22 -13 -43 -33 -22 -20
-44 -36 -50 -36 -6 0 -7 -4 -4 -10 3 -6 -1 -7 -9 -4 -19 7 -21 24 -3 24 7 0
30 16 50 35 20 19 41 35 46 35 5 0 14 7 21 15 12 15 30 20 30 9z m3663 -34
c44 -52 69 -138 72 -255 2 -49 1 -72 -1 -50 -17 164 -42 247 -90 304 -20 22
-31 41 -26 41 6 0 26 -18 45 -40z m-8996 -62 c-2 -18 -4 -4 -4 32 0 36 2 50 4
33 2 -18 2 -48 0 -65z m5440 84 c7 6 17 7 21 3 4 -4 1 -10 -5 -12 -7 -3 -13
-9 -13 -15 0 -6 6 -6 15 2 12 10 20 7 44 -19 19 -20 35 -29 45 -25 9 3 16 1
16 -5 0 -6 -5 -11 -11 -11 -6 0 -9 -6 -6 -14 6 -16 -20 -43 -30 -32 -4 4 -1
11 7 16 8 5 12 11 9 14 -3 3 -16 -4 -28 -15 -19 -18 -25 -19 -32 -8 -6 9 -12
10 -16 4 -10 -12 -37 -19 -29 -7 3 5 -8 22 -24 37 -17 16 -30 25 -30 21 0 -5
9 -17 20 -26 13 -11 17 -21 11 -25 -6 -3 -26 10 -46 29 -22 22 -31 38 -24 42
6 4 14 2 18 -4 4 -7 17 -3 35 13 16 14 27 27 24 30 -2 3 -15 -5 -27 -16 -19
-18 -25 -19 -33 -8 -7 11 -11 11 -15 2 -2 -7 -10 -13 -16 -13 -17 -1 -61 -39
-53 -47 3 -3 14 4 25 16 11 12 22 18 25 13 3 -5 -6 -19 -21 -32 -20 -18 -27
-19 -34 -9 -6 9 -12 10 -16 4 -5 -5 -15 -11 -23 -13 -8 -2 3 14 25 36 22 21
42 37 44 35 3 -2 15 7 28 19 20 19 25 20 34 8 6 -10 11 -12 17 -4 10 16 35 23
46 13 5 -5 15 -4 23 3z m2850 -94 c-2 -18 -4 -4 -4 32 0 36 2 50 4 33 2 -18 2
-48 0 -65z m-3087 76 c0 -8 -33 -40 -38 -36 -2 2 -17 -8 -34 -23 -24 -22 -32
-25 -39 -14 -6 9 -12 10 -16 4 -10 -13 -34 -18 -30 -6 1 5 -2 9 -8 9 -5 0 -9
-5 -7 -11 2 -6 -4 -4 -13 3 -15 13 -15 14 2 21 10 4 29 17 42 29 19 19 25 20
33 9 7 -11 11 -11 15 -1 2 6 12 12 21 12 13 0 12 -4 -6 -22 -19 -19 -24 -20
-31 -9 -8 12 -12 12 -25 -2 -21 -20 -21 -33 0 -16 13 10 17 10 24 -1 7 -12 12
-10 28 8 11 12 24 22 29 22 6 0 16 7 23 15 12 15 30 20 30 9z m470 0 c0 -8
-27 -34 -37 -34 -4 0 -20 -11 -35 -25 -15 -14 -32 -25 -39 -25 -7 0 2 14 19
30 18 17 36 30 41 30 5 0 14 7 21 15 12 15 30 20 30 9z m-3070 -25 c0 -14 -16
-11 -29 5 -10 12 -8 13 8 9 12 -3 21 -9 21 -14z m362 -53 c4 3 8 0 8 -6 0 -7
-7 -9 -17 -6 -9 4 -20 1 -24 -6 -6 -9 -11 -9 -21 0 -11 9 -17 9 -26 0 -6 -6
-15 -9 -18 -5 -4 3 1 13 10 23 13 13 19 14 31 4 8 -7 15 -9 15 -5 0 11 -53 55
-59 49 -3 -3 1 -9 9 -14 12 -7 11 -13 -8 -33 -12 -13 -19 -27 -15 -31 5 -4 1
-6 -7 -4 -8 2 -18 8 -22 13 -5 6 -11 5 -17 -5 -8 -12 -13 -12 -30 4 -20 18
-19 18 15 52 19 19 39 32 44 29 6 -4 -3 -19 -21 -36 -18 -16 -29 -32 -26 -35
3 -3 24 15 47 40 l41 45 42 -39 c22 -21 44 -37 49 -34z m7 61 c15 -19 2 -29
-15 -12 -8 7 -14 16 -14 19 0 11 17 6 29 -7z m-3584 -386 c74 -376 261 -817
445 -1050 22 -28 40 -54 40 -58 0 -18 -108 101 -161 179 -65 94 -83 108 -99
78 -15 -28 -40 -25 -89 11 -36 26 -53 51 -106 162 -114 237 -182 466 -170 577
9 87 26 114 67 105 l31 -7 -9 93 c-11 125 -11 237 0 274 8 24 11 3 17 -100 4
-71 19 -190 34 -264z m3648 377 c4 -10 8 -9 16 2 5 8 13 11 17 8 3 -4 -1 -14
-10 -23 -14 -15 -17 -14 -38 4 -17 17 -19 21 -6 21 9 0 19 -6 21 -12z m1952 2
c-3 -5 -20 -19 -38 -32 -33 -23 -32 -20 8 29 12 14 39 17 30 3z m235 4 c0 -3
-7 -12 -15 -20 -8 -9 -15 -12 -15 -8 0 4 -9 -1 -20 -11 -11 -10 -17 -22 -14
-26 3 -5 -2 -6 -10 -3 -9 3 -16 8 -16 11 0 8 28 33 38 33 5 0 15 7 22 15 12
15 30 20 30 9z m523 -41 c-7 -3 -13 -9 -13 -15 0 -6 6 -5 15 2 21 17 31 5 12
-14 -13 -13 -18 -12 -42 14 -23 24 -25 31 -14 43 12 14 16 13 34 -5 14 -14 16
-22 8 -25z m2858 -118 l-10 -60 4 64 c3 35 6 87 7 115 l2 51 3 -55 c2 -30 -1
-82 -6 -115z m353 45 c1 -47 -3 -127 -8 -179 l-9 -93 31 7 c26 5 33 2 49 -21
28 -44 23 -186 -11 -298 -71 -236 -174 -461 -233 -514 -50 -44 -81 -51 -102
-23 -21 28 -32 19 -99 -79 -51 -75 -162 -194 -162 -173 0 6 7 16 16 23 29 25
150 215 206 325 168 329 281 718 295 1014 5 100 9 128 17 115 5 -11 10 -57 10
-104z m-6004 95 c7 -8 17 -15 22 -15 14 0 41 -30 34 -37 -3 -3 -14 1 -24 10
-10 10 -22 17 -26 17 -9 0 -36 26 -36 34 0 11 18 6 30 -9z m386 -17 l19 -21
-27 18 c-29 18 -34 25 -20 25 5 0 17 -10 28 -22z m1657 0 c-13 -12 -25 -19
-29 -16 -9 9 18 37 36 38 10 0 8 -6 -7 -22z m692 -2 c14 -14 21 -28 15 -31
-11 -7 -62 40 -53 49 9 9 12 8 38 -18z m-2977 -11 c15 -14 32 -25 39 -25 18 0
16 -17 -3 -24 -8 -3 -12 -2 -9 4 3 6 1 10 -5 10 -5 0 -24 14 -42 30 -17 17
-26 30 -19 30 7 0 24 -11 39 -25z m597 5 c3 -5 2 -10 -4 -10 -5 0 -13 5 -16
10 -3 6 -2 10 4 10 5 0 13 -4 16 -10z m2051 -37 c-4 -4 -11 -1 -15 6 -7 10
-13 11 -31 1 -18 -10 -21 -10 -14 2 21 34 29 37 48 18 11 -11 17 -23 12 -27z
m-5029 -25 c-2 -13 -4 -3 -4 22 0 25 2 35 4 23 2 -13 2 -33 0 -45z m2813 53
c0 -5 -6 -11 -13 -14 -8 -3 -14 1 -14 9 0 8 6 14 14 14 7 0 13 -4 13 -9z
m-2031 -32 c17 -17 36 -39 42 -50 11 -21 12 -21 -60 -39 l-44 -11 7 -63 c8
-75 33 -156 52 -163 7 -2 34 0 60 5 l46 10 -6 -40 c-16 -98 -59 -124 -114 -69
-98 98 -136 354 -65 433 23 26 47 22 82 -13z m6848 -21 c-2 -13 -4 -5 -4 17
-1 22 1 32 4 23 2 -10 2 -28 0 -40z m-5497 -11 l-22 -22 11 23 c7 12 8 22 4
22 -3 0 -18 -10 -32 -22 -22 -20 -23 -20 -11 -3 37 53 41 55 58 39 13 -14 13
-18 -8 -37z m3146 39 c10 -11 11 -17 3 -22 -6 -3 -15 -1 -19 7 -7 10 -11 10
-24 0 -14 -11 -16 -11 -16 3 0 10 4 15 9 11 5 -3 12 -1 16 5 8 13 14 13 31 -4z
m-5249 -28 c-3 -7 -5 -2 -5 12 0 14 2 19 5 13 2 -7 2 -19 0 -25z m7570 0 c-3
-8 -6 -5 -6 6 -1 11 2 17 5 13 3 -3 4 -12 1 -19z m-7920 -40 c-2 -13 -4 -5 -4
17 -1 22 1 32 4 23 2 -10 2 -28 0 -40z m8270 0 c-2 -13 -4 -5 -4 17 -1 22 1
32 4 23 2 -10 2 -28 0 -40z m-8590 -40 c-2 -13 -4 -5 -4 17 -1 22 1 32 4 23 2
-10 2 -28 0 -40z m650 15 c-3 -10 -5 -4 -5 12 0 17 2 24 5 18 2 -7 2 -21 0
-30z m7608 -23 c-4 -28 -9 -49 -12 -47 -2 3 -1 28 3 56 4 28 9 50 11 47 3 -3
2 -28 -2 -56z m-7308 -2 c-3 -7 -5 -2 -5 12 0 14 2 19 5 13 2 -7 2 -19 0 -25z
m7010 0 c-3 -7 -5 -2 -5 12 0 14 2 19 5 13 2 -7 2 -19 0 -25z m-7619 -73 c-1
-31 -16 35 -16 70 0 25 2 24 9 -10 4 -22 8 -49 7 -60z m8239 48 c-3 -10 -5 -2
-5 17 0 19 2 27 5 18 2 -10 2 -26 0 -35z m-8220 5 c-3 -8 -6 -5 -6 6 -1 11 2
17 5 13 3 -3 4 -12 1 -19z m300 -15 c-3 -10 -5 -4 -5 12 0 17 2 24 5 18 2 -7
2 -21 0 -30z m7890 15 c-3 -8 -6 -5 -6 6 -1 11 2 17 5 13 3 -3 4 -12 1 -19z
m-8540 -45 c-3 -10 -5 -2 -5 17 0 19 2 27 5 18 2 -10 2 -26 0 -35z m8890 0
c-3 -10 -5 -4 -5 12 0 17 2 24 5 18 2 -7 2 -21 0 -30z m-330 -15 c-3 -7 -5 -2
-5 12 0 14 2 19 5 13 2 -7 2 -19 0 -25z m-7900 -10 c-3 -7 -5 -2 -5 12 0 14 2
19 5 13 2 -7 2 -19 0 -25z m7570 0 c-3 -7 -5 -2 -5 12 0 14 2 19 5 13 2 -7 2
-19 0 -25z m-8220 -30 c-3 -7 -5 -2 -5 12 0 14 2 19 5 13 2 -7 2 -19 0 -25z
m8870 -5 c-3 -10 -5 -4 -5 12 0 17 2 24 5 18 2 -7 2 -21 0 -30z m-8540 -5 c-3
-7 -5 -2 -5 12 0 14 2 19 5 13 2 -7 2 -19 0 -25z m8210 0 c-3 -7 -5 -2 -5 12
0 14 2 19 5 13 2 -7 2 -19 0 -25z m-7869 -43 c0 -16 -2 -15 -8 5 -4 14 -8 34
-8 45 0 16 2 15 8 -5 4 -14 8 -34 8 -45z m7539 33 c-3 -7 -5 -2 -5 12 0 14 2
19 5 13 2 -7 2 -19 0 -25z m-8168 -158 c-1 -8 -9 17 -20 55 -10 39 -18 79 -18
90 0 11 9 -14 19 -55 11 -41 19 -82 19 -90z m298 128 c-3 -8 -6 -5 -6 6 -1 11
2 17 5 13 3 -3 4 -12 1 -19z m8187 -22 c-3 -21 -8 -35 -11 -32 -2 2 -1 20 3
40 3 21 8 35 11 32 2 -2 1 -20 -3 -40z m330 0 c-3 -21 -8 -35 -11 -32 -2 2 -1
20 3 40 3 21 8 35 11 32 2 -2 1 -20 -3 -40z m-7097 12 c-3 -8 -6 -5 -6 6 -1
11 2 17 5 13 3 -3 4 -12 1 -19z m5350 0 c-3 -8 -6 -5 -6 6 -1 11 2 17 5 13 3
-3 4 -12 1 -19z m1090 0 c-3 -8 -6 -5 -6 6 -1 11 2 17 5 13 3 -3 4 -12 1 -19z
m-7828 -113 c-2 -17 -27 69 -27 90 0 11 6 -2 14 -30 7 -27 13 -54 13 -60z
m308 73 c-3 -8 -6 -5 -6 6 -1 11 2 17 5 13 3 -3 4 -12 1 -19z m7510 0 c-3 -8
-6 -5 -6 6 -1 11 2 17 5 13 3 -3 4 -12 1 -19z m-7500 -40 c-3 -8 -6 -5 -6 6
-1 11 2 17 5 13 3 -3 4 -12 1 -19z m7490 0 c-3 -8 -6 -5 -6 6 -1 11 2 17 5 13
3 -3 4 -12 1 -19z m330 0 c-3 -8 -6 -5 -6 6 -1 11 2 17 5 13 3 -3 4 -12 1 -19z
m330 0 c-3 -8 -6 -5 -6 6 -1 11 2 17 5 13 3 -3 4 -12 1 -19z m-8128 -68 c0 -9
-4 -8 -9 5 -5 11 -9 27 -9 35 0 9 4 8 9 -5 5 -11 9 -27 9 -35z m7455 16 c-3
-15 -8 -25 -11 -23 -2 3 -1 17 3 31 3 15 8 25 11 23 2 -3 1 -17 -3 -31z m316
-50 c-13 -42 -25 -75 -27 -72 -2 2 6 38 19 80 12 41 24 74 26 71 2 -2 -6 -38
-18 -79z m347 62 c-3 -8 -6 -5 -6 6 -1 11 2 17 5 13 3 -3 4 -12 1 -19z m-8450
-30 c-3 -8 -6 -5 -6 6 -1 11 2 17 5 13 3 -3 4 -12 1 -19z m-318 -38 c0 -9 -4
-8 -9 5 -5 11 -9 27 -9 35 0 9 4 8 9 -5 5 -11 9 -27 9 -35z m8745 -19 c-9 -34
-19 -60 -21 -58 -2 3 4 32 13 66 10 33 19 59 21 57 3 -2 -3 -32 -13 -65z
m-7930 -368 c82 -167 159 -287 245 -377 56 -60 60 -65 22 -36 -95 74 -221 257
-297 431 -37 86 -134 365 -133 384 0 5 22 -53 49 -129 27 -76 79 -199 114
-273z m7241 285 c-107 -328 -237 -561 -382 -686 -85 -74 -94 -72 -14 3 150
142 310 434 407 747 10 32 19 56 22 53 2 -2 -13 -55 -33 -117z m-7931 -248
c99 -231 224 -429 347 -553 49 -48 78 -82 66 -76 -43 24 -184 176 -239 259
-65 99 -131 228 -181 356 -47 118 -117 323 -116 338 0 6 22 -50 48 -124 26
-74 60 -164 75 -200z m-619 145 c9 -33 32 -98 51 -144 19 -47 32 -86 30 -88
-2 -2 -24 19 -50 48 -62 69 -86 147 -70 228 9 41 18 31 39 -44z m9774 -1 c2
-58 -28 -130 -75 -183 -50 -55 -64 -60 -41 -14 8 15 31 78 52 138 20 61 40
117 42 125 7 19 21 -22 22 -66z m-940 -30 c-90 -255 -198 -442 -334 -580 -83
-85 -162 -134 -212 -133 -22 0 -14 5 33 23 33 12 81 37 106 55 120 86 295 369
398 643 19 49 35 86 37 84 2 -2 -11 -43 -28 -92z m320 -35 c-112 -307 -265
-557 -412 -670 -30 -24 -21 -11 36 49 43 45 105 124 139 175 72 109 195 355
239 479 18 49 34 87 36 84 2 -2 -15 -55 -38 -117z m-7569 -94 c0 -5 -5 -3 -10
5 -5 8 -10 20 -10 25 0 6 5 3 10 -5 5 -8 10 -19 10 -25z m-880 -245 c6 -11 8
-20 6 -20 -3 0 -10 9 -16 20 -6 11 -8 20 -6 20 3 0 10 -9 16 -20z m8330 0 c-6
-11 -13 -20 -16 -20 -2 0 0 9 6 20 6 11 13 20 16 20 2 0 0 -9 -6 -20z m-8578
-294 c21 -15 64 -39 95 -52 l58 -24 -39 0 c-61 0 -119 34 -196 117 -95 102
-110 134 -24 52 38 -36 86 -78 106 -93z m8978 133 c-23 -42 -153 -169 -194
-188 -23 -12 -58 -21 -77 -21 -32 0 -30 2 36 35 62 30 207 146 228 181 13 22
19 16 7 -7z m-550 -63 c0 -2 -8 -10 -17 -17 -16 -13 -17 -12 -4 4 13 16 21 21
21 13z m-7795 -174 c-3 -3 -11 0 -18 7 -9 10 -8 11 6 5 10 -3 15 -9 12 -12z
m7570 8 c-3 -5 -12 -10 -18 -10 -7 0 -6 4 3 10 19 12 23 12 15 0z"/>
<path d="M1409 3898 c-17 -100 -17 -278 0 -368 15 -78 42 -182 47 -177 3 2 -2
39 -11 83 -27 144 -35 288 -25 417 6 66 8 122 6 124 -2 2 -10 -34 -17 -79z"/>
<path d="M1371 3887 c-25 -154 -8 -393 34 -504 9 -21 13 -27 11 -13 -32 181
-38 255 -34 417 2 95 3 173 2 173 0 0 -7 -33 -13 -73z"/>
<path d="M1333 3893 c-4 -27 -8 -120 -8 -208 1 -134 5 -175 24 -250 13 -49 27
-97 33 -105 7 -12 8 -10 4 5 -29 113 -41 225 -41 408 0 108 -1 197 -2 197 -1
0 -5 -21 -10 -47z"/>
<path d="M1291 3855 c-23 -158 -8 -352 38 -490 12 -33 19 -49 16 -35 -2 14
-12 68 -22 120 -13 69 -18 147 -18 288 0 105 -1 192 -1 192 -1 0 -7 -34 -13
-75z"/>
<path d="M1256 3873 c-14 -81 -18 -251 -7 -328 11 -78 50 -239 57 -233 1 2 -7
55 -18 118 -17 89 -22 157 -22 298 0 100 -1 182 -2 182 -1 0 -4 -17 -8 -37z"/>
<path d="M1616 2680 c14 -53 75 -174 118 -233 71 -99 106 -124 41 -28 -32 46
-82 129 -112 185 -30 55 -51 90 -47 76z"/>
<path d="M1655 2680 c13 -49 76 -174 119 -234 67 -94 96 -111 35 -21 -30 44
-78 125 -107 180 -29 55 -50 89 -47 75z"/>
<path d="M1586 2660 c24 -86 114 -238 174 -295 25 -24 20 -13 -23 50 -30 44
-78 123 -106 175 -29 52 -49 84 -45 70z"/>
<path d="M1515 2650 c12 -50 85 -187 133 -250 74 -98 94 -107 28 -12 -32 45
-82 128 -112 185 -31 56 -52 91 -49 77z"/>
<path d="M1555 2640 c21 -75 155 -291 198 -317 12 -8 7 2 -51 85 -25 35 -69
107 -99 160 -30 53 -51 86 -48 72z"/>
<path d="M8577 3925 c13 -120 6 -336 -15 -455 -12 -63 -19 -116 -18 -118 9 -8
47 164 57 256 12 106 2 276 -21 347 -7 23 -8 15 -3 -30z"/>
<path d="M8616 3919 c15 -138 1 -377 -32 -544 -12 -59 6 -17 26 61 40 153 44
394 10 499 -8 26 -9 24 -4 -16z"/>
<path d="M8655 3744 c0 -158 -5 -232 -18 -303 -10 -51 -16 -95 -14 -98 3 -2
15 38 28 89 28 116 37 347 17 452 -12 67 -13 62 -13 -140z"/>
<path d="M8761 3924 c0 -11 3 -14 6 -6 3 7 2 16 -1 19 -3 4 -6 -2 -5 -13z"/>
<path d="M8695 3740 c0 -144 -5 -220 -18 -290 -10 -52 -20 -106 -22 -120 -3
-14 4 2 16 35 46 139 63 362 36 505 -11 60 -12 51 -12 -130z"/>
<path d="M8735 3734 c0 -180 -3 -210 -41 -404 l-4 -25 10 25 c6 14 21 63 33
110 17 70 21 114 21 245 0 88 -5 177 -10 199 -7 29 -9 -11 -9 -150z"/>
<path d="M8305 2617 c-22 -45 -69 -124 -104 -177 -67 -101 -48 -97 25 7 45 62
128 227 122 242 -2 5 -21 -28 -43 -72z"/>
<path d="M8338 2607 c-26 -51 -73 -130 -104 -177 -37 -56 -47 -77 -29 -60 43
40 119 161 154 244 18 43 31 79 29 81 -2 2 -25 -38 -50 -88z"/>
<path d="M8384 2618 c-16 -34 -61 -111 -100 -170 -39 -59 -69 -108 -67 -108 7
0 56 59 100 122 39 56 109 205 100 214 -2 2 -17 -24 -33 -58z"/>
<path d="M8450 2596 c-19 -38 -68 -119 -108 -180 -77 -116 -66 -119 19 -5 47
64 134 232 127 247 -2 4 -19 -24 -38 -62z"/>
<path d="M8410 2592 c-19 -37 -62 -107 -95 -157 -77 -115 -77 -115 -72 -115 9
0 107 129 137 180 32 54 73 150 68 156 -2 1 -19 -27 -38 -64z"/>
<path d="M1121 3835 c-14 -94 -14 -230 -1 -315 12 -71 50 -223 56 -218 2 2 -6
53 -18 113 -17 88 -22 149 -22 303 -1 105 -2 192 -2 192 -1 0 -7 -34 -13 -75z"/>
<path d="M1011 3837 c-27 -155 -6 -419 43 -542 10 -25 14 -30 11 -13 -36 185
-46 276 -46 406 0 78 3 158 7 177 3 19 4 35 1 35 -3 0 -10 -28 -16 -63z"/>
<path d="M1083 3833 c-12 -84 -8 -298 6 -368 16 -77 42 -168 46 -163 2 2 -6
55 -18 118 -16 90 -21 154 -21 293 0 97 -1 177 -2 177 -1 0 -6 -26 -11 -57z"/>
<path d="M976 3853 c-14 -59 -19 -310 -7 -379 12 -72 52 -217 57 -211 2 2 -6
50 -18 108 -18 86 -22 140 -22 306 -1 112 -2 203 -2 203 -1 0 -5 -12 -8 -27z"/>
<path d="M931 3795 c-23 -159 -9 -343 39 -499 12 -37 23 -66 24 -64 2 1 -8 55
-22 118 -22 100 -25 141 -26 317 -1 112 -2 203 -2 203 -1 0 -7 -34 -13 -75z"/>
<path d="M1043 3813 c-21 -151 5 -413 51 -513 9 -19 14 -26 11 -15 -36 157
-49 272 -48 423 0 89 -1 162 -3 162 -1 0 -6 -26 -11 -57z"/>
<path d="M1370 2579 c40 -100 98 -192 170 -269 l42 -45 -35 50 c-75 108 -99
147 -143 229 -25 47 -47 86 -50 86 -2 0 5 -23 16 -51z"/>
<path d="M1280 2616 c0 -4 18 -46 40 -93 44 -93 110 -192 161 -238 l33 -30
-30 40 c-57 74 -116 167 -160 249 -24 44 -44 77 -44 72z"/>
<path d="M1320 2617 c-1 -46 128 -263 190 -322 24 -22 15 -4 -33 66 -37 53
-87 134 -112 180 -24 46 -45 81 -45 76z"/>
<path d="M1250 2596 c0 -18 79 -174 111 -217 39 -53 96 -119 103 -119 3 0 -22
37 -54 83 -33 45 -82 123 -110 172 -27 50 -50 86 -50 81z"/>
<path d="M1220 2577 c0 -4 13 -36 29 -71 34 -76 93 -164 150 -226 36 -39 33
-32 -24 52 -36 53 -85 131 -110 175 -25 43 -45 75 -45 70z"/>
<path d="M8865 3723 c0 -138 -5 -213 -18 -283 -10 -52 -20 -106 -23 -120 -2
-14 5 0 16 30 36 96 53 231 46 370 -9 206 -21 208 -21 3z"/>
<path d="M8971 3884 c0 -11 3 -14 6 -6 3 7 2 16 -1 19 -3 4 -6 -2 -5 -13z"/>
<path d="M8907 3775 c6 -128 -6 -262 -36 -410 -10 -49 -17 -92 -15 -93 4 -5
39 118 55 193 16 72 17 333 1 390 -8 32 -9 16 -5 -80z"/>
<path d="M9018 3725 c4 -164 -3 -232 -43 -442 -5 -27 -5 -27 10 3 48 104 70
393 42 544 -11 60 -12 52 -9 -105z"/>
<path d="M8943 3710 c0 -165 -10 -250 -48 -430 -3 -14 4 -1 15 29 39 105 53
199 53 346 0 77 -5 160 -10 185 -7 34 -9 4 -10 -130z"/>
<path d="M9054 3668 c-1 -177 -4 -218 -26 -318 -14 -63 -24 -117 -22 -118 6
-8 46 137 61 223 11 66 14 124 9 220 -9 217 -21 213 -22 -7z"/>
<path d="M8982 3705 c0 -150 -5 -194 -47 -423 -2 -15 6 6 20 46 14 40 30 103
36 140 13 76 13 297 0 357 -6 28 -8 -7 -9 -120z"/>
<path d="M8605 2560 c-37 -74 -99 -173 -156 -250 -19 -25 -26 -39 -16 -31 32
26 114 135 150 201 35 63 71 150 62 150 -3 0 -21 -32 -40 -70z"/>
<path d="M8643 2556 c-31 -63 -90 -157 -153 -246 -31 -44 -31 -44 20 10 28 30
70 85 91 122 39 64 84 167 76 174 -1 2 -17 -25 -34 -60z"/>
<path d="M8691 2572 c-31 -65 -106 -185 -160 -257 -31 -42 -36 -53 -17 -35 63
57 139 169 182 272 30 72 27 87 -5 20z"/>
<path d="M8736 2583 c-10 -33 -113 -201 -161 -264 -25 -32 -45 -63 -45 -67 1
-9 47 44 101 116 43 56 126 219 116 228 -3 3 -8 -3 -11 -13z"/>
<path d="M8766 2564 c-12 -31 -115 -198 -163 -264 -59 -82 -18 -48 49 40 51
66 136 226 126 235 -3 3 -8 -2 -12 -11z"/>
<path d="M8762 2485 c-28 -51 -79 -131 -113 -176 -42 -57 -51 -74 -29 -54 54
50 119 144 162 232 22 46 38 86 36 88 -2 2 -27 -38 -56 -90z"/>
<path d="M811 3834 c0 -11 3 -14 6 -6 3 7 2 16 -1 19 -3 4 -6 -2 -5 -13z"/>
<path d="M761 3765 c-15 -105 -14 -226 4 -331 16 -91 53 -229 60 -222 2 2 -8
60 -23 128 -23 109 -26 149 -26 312 -1 104 -2 188 -2 188 -1 0 -7 -34 -13 -75z"/>
<path d="M726 3783 c-16 -94 -17 -241 -3 -338 14 -91 63 -272 72 -263 2 2 -5
39 -16 83 -35 148 -52 301 -46 433 3 67 4 122 2 122 -1 0 -5 -17 -9 -37z"/>
<path d="M683 3743 c-21 -170 -1 -362 52 -509 14 -38 23 -58 20 -44 -3 14 -14
68 -25 120 -31 149 -43 284 -35 398 8 115 1 136 -12 35z"/>
<path d="M796 3746 c-19 -151 7 -371 59 -501 17 -44 16 -40 -16 113 -14 66
-23 155 -28 277 -6 165 -7 174 -15 111z"/>
<path d="M645 3724 c-18 -167 9 -409 59 -525 19 -44 20 -31 1 40 -30 117 -46
258 -46 404 0 81 -2 147 -4 147 -2 0 -7 -30 -10 -66z"/>
<path d="M606 3695 c-13 -122 -1 -295 29 -404 23 -86 55 -165 41 -101 -42 181
-49 238 -55 405 -6 173 -7 177 -15 100z"/>
<path d="M1020 2535 c0 -6 19 -49 43 -95 44 -89 112 -184 168 -235 28 -26 27
-23 -13 30 -65 87 -121 172 -162 245 -20 36 -36 60 -36 55z"/>
<path d="M1066 2520 c18 -67 86 -178 163 -267 53 -63 68 -63 19 -1 -46 57
-107 148 -153 228 -20 36 -33 54 -29 40z"/>
<path d="M990 2515 c0 -6 17 -44 38 -86 40 -80 110 -176 163 -224 l33 -30 -35
45 c-48 60 -112 157 -160 238 -21 37 -39 62 -39 57z"/>
<path d="M930 2476 c36 -95 124 -230 191 -291 l33 -30 -22 30 c-89 122 -135
189 -167 248 -38 69 -52 86 -35 43z"/>
<path d="M960 2494 c0 -15 70 -147 98 -184 44 -59 107 -130 114 -130 4 0 -17
33 -48 72 -31 40 -78 111 -106 158 -55 93 -58 98 -58 84z"/>
<path d="M9224 3652 c0 -161 -4 -204 -26 -312 -14 -69 -24 -127 -23 -128 7 -8
46 136 62 223 11 66 14 125 10 220 -9 208 -22 206 -23 -3z"/>
<path d="M9268 3704 c5 -140 -12 -303 -48 -445 -10 -41 -17 -76 -15 -77 5 -5
50 141 66 213 16 71 17 340 2 400 -8 31 -9 9 -5 -91z"/>
<path d="M9188 3635 c-5 -150 -12 -214 -32 -304 -14 -63 -24 -116 -22 -118 6
-6 56 173 66 237 11 74 12 263 1 330 -5 32 -9 -12 -13 -145z"/>
<path d="M9304 3638 c-1 -145 -5 -194 -27 -302 -15 -72 -25 -131 -23 -133 5
-5 44 132 58 202 13 68 15 298 2 363 -7 32 -9 -4 -10 -130z"/>
<path d="M9345 3705 c7 -117 -9 -282 -40 -419 -14 -60 -23 -111 -21 -114 7 -6
42 114 61 205 19 87 22 310 5 378 -7 32 -8 21 -5 -50z"/>
<path d="M9381 3624 c-1 -152 -15 -263 -51 -404 -10 -41 -17 -76 -16 -78 8 -7
58 161 71 236 16 85 19 294 6 357 -6 29 -9 -3 -10 -111z"/>
<path d="M8891 2459 c-29 -51 -76 -124 -105 -163 -67 -91 -76 -106 -53 -87 27
21 111 130 140 181 28 48 79 160 73 160 -2 0 -27 -41 -55 -91z"/>
<path d="M8930 2458 c-24 -44 -65 -109 -90 -143 -25 -35 -56 -78 -69 -96 l-25
-34 28 25 c50 45 127 153 168 238 22 46 39 85 37 86 -2 2 -24 -32 -49 -76z"/>
<path d="M8956 2432 c-28 -47 -79 -125 -114 -172 -63 -84 -63 -84 -17 -40 56
54 126 156 161 235 13 32 24 59 22 60 -2 2 -25 -36 -52 -83z"/>
<path d="M8990 2423 c-24 -43 -72 -115 -107 -161 -35 -47 -62 -86 -60 -88 6
-7 102 108 141 169 37 57 79 147 73 153 -2 2 -23 -31 -47 -73z"/>
<path d="M9023 2411 c-29 -49 -75 -120 -104 -157 -75 -100 -77 -105 -20 -46
28 29 64 73 81 97 33 49 104 185 98 190 -2 2 -27 -36 -55 -84z"/>
<path d="M9057 2401 c-25 -43 -76 -119 -113 -168 -57 -77 -60 -83 -24 -48 23
22 61 67 85 100 44 62 109 184 102 191 -2 3 -25 -31 -50 -75z"/>
<path d="M478 3700 c-21 -153 -3 -340 47 -491 30 -90 42 -101 20 -19 -35 129
-48 226 -54 390 -5 138 -8 163 -13 120z"/>
<path d="M370 3723 c0 -5 -5 -51 -10 -103 -16 -153 15 -373 70 -491 11 -24 18
-36 15 -26 -49 171 -80 401 -72 534 3 51 4 93 1 93 -2 0 -4 -3 -4 -7z"/>
<path d="M436 3645 c-16 -149 15 -376 68 -495 20 -47 20 -33 -3 58 -34 135
-44 203 -50 362 l-7 155 -8 -80z"/>
<path d="M324 3653 c-11 -92 2 -319 25 -403 18 -72 59 -184 60 -167 1 5 -8 43
-18 85 -40 156 -53 253 -53 398 0 79 -2 144 -3 144 -2 0 -7 -25 -11 -57z"/>
<path d="M397 3641 c-10 -93 -9 -154 7 -261 15 -93 63 -266 72 -257 3 3 -4 40
-15 83 -31 122 -43 207 -50 359 -6 129 -7 135 -14 76z"/>
<path d="M288 3646 c-22 -139 -2 -337 47 -487 30 -89 45 -102 21 -18 -35 125
-49 222 -55 384 -5 130 -8 158 -13 121z"/>
<path d="M760 2457 c0 -3 11 -31 25 -62 32 -74 113 -189 171 -245 44 -42 42
-40 -23 47 -38 50 -92 131 -121 179 -29 48 -52 85 -52 81z"/>
<path d="M690 2436 c0 -12 69 -146 92 -180 33 -48 130 -157 135 -152 2 2 -20
34 -49 70 -29 37 -81 112 -115 168 -35 56 -63 99 -63 94z"/>
<path d="M730 2435 c0 -17 71 -148 105 -195 19 -25 57 -67 87 -95 29 -27 41
-36 27 -20 -54 62 -120 155 -169 236 -27 46 -50 80 -50 74z"/>
<path d="M660 2416 c0 -4 14 -35 31 -69 42 -83 106 -172 165 -227 l48 -45 -35
45 c-19 25 -49 63 -66 85 -18 22 -57 80 -87 129 -31 49 -56 86 -56 82z"/>
<path d="M630 2397 c0 -13 52 -111 83 -157 44 -65 109 -140 130 -152 10 -5 -3
17 -29 49 -26 32 -78 105 -116 162 -37 58 -68 102 -68 98z"/>
<path d="M9511 3609 c-1 -143 -20 -287 -56 -419 -8 -30 -13 -56 -11 -57 5 -6
35 78 57 162 24 92 37 340 21 415 -8 37 -10 18 -11 -101z"/>
<path d="M9551 3605 c-1 -136 -18 -266 -52 -399 -11 -43 -18 -80 -15 -83 8 -8
55 154 71 244 16 91 19 249 6 323 -7 34 -9 14 -10 -85z"/>
<path d="M9622 3710 c0 -14 2 -19 5 -12 2 6 2 18 0 25 -3 6 -5 1 -5 -13z"/>
<path d="M9666 3650 c6 -105 -12 -295 -41 -420 -13 -58 -27 -116 -30 -130 -3
-14 6 4 21 40 43 107 64 229 63 375 0 72 -4 148 -9 170 -7 32 -8 24 -4 -35z"/>
<path d="M9588 3550 c-6 -142 -16 -206 -63 -410 -15 -67 30 56 51 140 27 105
40 294 26 375 -7 42 -9 26 -14 -105z"/>
<path d="M9701 3554 c-1 -144 -22 -291 -60 -427 -10 -38 -15 -65 -11 -60 15
16 61 168 75 251 16 91 19 272 6 337 -6 29 -9 2 -10 -101z"/>
<path d="M9631 3600 c-2 -146 -35 -361 -75 -495 -4 -11 2 -2 13 20 53 108 90
362 73 490 l-9 70 -2 -85z"/>
<path d="M9230 2454 c0 -19 -82 -148 -158 -249 -54 -72 -64 -90 -37 -65 82 77
222 296 202 317 -4 3 -7 2 -7 -3z"/>
<path d="M9240 2393 c-37 -66 -105 -164 -164 -238 l-40 -50 53 50 c60 58 130
158 166 239 14 31 23 56 21 56 -2 0 -19 -26 -36 -57z"/>
<path d="M9264 2366 c-23 -39 -70 -109 -105 -155 -93 -122 -98 -133 -34 -66
64 65 130 163 164 239 12 27 20 50 19 51 -2 2 -22 -29 -44 -69z"/>
<path d="M9280 2328 c-30 -49 -84 -126 -119 -171 -62 -80 -62 -81 -16 -37 26
25 67 72 91 106 41 58 109 183 102 189 -2 1 -28 -38 -58 -87z"/>
<path d="M9340 2357 c-38 -67 -138 -206 -178 -249 -14 -16 -21 -28 -14 -28 21
0 141 154 187 243 54 101 57 126 5 34z"/>
<path d="M6301 3553 c18 -21 35 -39 36 -42 3 -5 33 26 33 35 0 3 -7 1 -15 -6
-12 -10 -20 -7 -44 19 -16 17 -33 31 -37 31 -4 0 8 -17 27 -37z"/>
<path d="M3680 3519 c0 -5 5 -7 10 -4 6 3 10 8 10 11 0 2 -4 4 -10 4 -5 0 -10
-5 -10 -11z"/>
<path d="M6310 4090 c0 -61 -27 -182 -65 -295 -25 -73 -31 -102 -22 -107 7 -4
38 -8 70 -8 l57 0 0 98 c0 123 -20 352 -32 352 -4 0 -8 -18 -8 -40z"/>
<path d="M3700 3837 l0 -157 33 0 c58 0 60 8 28 101 -16 47 -34 112 -40 144
-6 32 -13 61 -16 63 -3 3 -5 -65 -5 -151z"/>
<path d="M3895 3935 c4 -11 19 -68 34 -127 l26 -108 33 0 33 0 -15 28 c-9 15
-31 62 -50 104 -33 75 -79 151 -61 103z"/>
<path d="M6055 3854 c-25 -55 -53 -111 -61 -126 l-15 -28 34 0 c32 0 35 3 41
38 3 21 17 77 30 123 13 46 23 86 21 87 -2 2 -24 -40 -50 -94z"/>
<path d="M3740 3673 c-19 -2 -129 -13 -245 -24 -313 -31 -881 -106 -871 -116
2 -3 116 11 253 31 274 39 519 67 778 90 239 22 247 23 180 23 -33 0 -76 -2
-95 -4z"/>
<path d="M4086 3661 c-12 -5 -15 -10 -9 -14 6 -4 16 0 23 8 14 17 13 17 -14 6z"/>
<path d="M4120 3659 c0 -6 -23 -33 -51 -60 -28 -28 -49 -53 -45 -56 3 -4 7 -4
9 -2 1 3 29 33 62 67 40 42 54 62 42 62 -9 0 -17 -5 -17 -11z"/>
<path d="M4152 3650 c-7 -11 -8 -20 -4 -20 5 0 17 9 27 20 14 15 15 20 4 20
-8 0 -20 -9 -27 -20z"/>
<path d="M4151 3609 c-30 -33 -51 -59 -48 -59 4 0 35 27 69 60 35 33 56 59 48
59 -8 -1 -39 -28 -69 -60z"/>
<path d="M3990 3650 c0 -5 5 -10 10 -10 6 0 10 5 10 10 0 6 -4 10 -10 10 -5 0
-10 -4 -10 -10z"/>
<path d="M4001 3619 c-18 -21 -30 -39 -27 -39 8 0 76 67 76 75 0 13 -18 0 -49
-36z"/>
<path d="M3860 3640 c0 -5 5 -10 10 -10 6 0 10 5 10 10 0 6 -4 10 -10 10 -5 0
-10 -4 -10 -10z"/>
<path d="M5830 3640 c0 -5 5 -10 11 -10 5 0 7 5 4 10 -3 6 -8 10 -11 10 -2 0
-4 -4 -4 -10z"/>
<path d="M6360 3620 c0 -5 5 -10 10 -10 6 0 10 5 10 10 0 6 -4 10 -10 10 -5 0
-10 -4 -10 -10z"/>
<path d="M3520 3610 c0 -5 5 -10 10 -10 6 0 10 5 10 10 0 6 -4 10 -10 10 -5 0
-10 -4 -10 -10z"/>
<path d="M3306 3591 c-4 -5 -2 -12 3 -15 5 -4 12 -2 15 3 4 5 2 12 -3 15 -5 4
-12 2 -15 -3z"/>
<path d="M3342 3580 c-7 -11 -10 -20 -6 -20 7 0 34 27 34 34 0 13 -16 5 -28
-14z"/>
<path d="M6620 3590 c0 -5 4 -10 9 -10 6 0 13 5 16 10 3 6 -1 10 -9 10 -9 0
-16 -4 -16 -10z"/>
<path d="M6652 3588 c-13 -13 -16 -28 -4 -28 4 0 18 9 32 20 23 18 24 20 5 20
-12 0 -26 -5 -33 -12z"/>
<path d="M4060 3550 c0 -5 5 -10 10 -10 6 0 10 5 10 10 0 6 -4 10 -10 10 -5 0
-10 -4 -10 -10z"/>
<path d="M4529 3463 c-20 -5 -29 -33 -29 -91 0 -32 -6 -49 -25 -68 -14 -14
-29 -23 -34 -20 -5 3 -15 44 -22 91 -7 47 -15 85 -19 85 -3 0 -14 -17 -24 -37
l-18 -38 -19 24 c-10 13 -19 30 -19 38 0 10 -6 13 -16 9 -9 -3 -26 -6 -38 -6
-19 0 -22 -4 -18 -25 6 -32 17 -39 42 -25 18 9 23 6 41 -24 11 -19 26 -37 34
-40 8 -3 24 -23 35 -46 25 -49 42 -57 75 -36 13 9 29 16 35 16 6 0 23 -26 38
-57 15 -31 33 -58 40 -61 7 -2 25 10 41 27 16 17 34 31 40 31 6 0 25 -13 44
-29 31 -27 35 -29 58 -16 67 39 66 39 95 16 38 -30 59 -26 90 14 14 19 34 35
44 35 10 0 30 -16 44 -35 31 -40 52 -44 90 -14 29 23 28 23 95 -16 23 -13 27
-11 58 16 19 16 38 29 44 29 6 0 24 -14 40 -31 16 -17 34 -29 41 -27 7 3 25
30 40 61 15 31 32 57 38 57 6 0 22 -7 35 -16 33 -21 50 -13 75 36 11 23 27 43
35 46 8 3 23 21 34 40 18 30 23 33 41 24 25 -14 36 -7 42 25 4 18 1 25 -11 25
-9 0 -26 3 -38 6 -17 5 -23 2 -23 -9 0 -8 -9 -25 -19 -38 l-19 -24 -18 38
c-10 20 -21 37 -24 37 -4 0 -12 -38 -19 -85 -7 -47 -17 -87 -21 -90 -4 -3 -18
3 -31 14 -18 14 -24 33 -30 86 -4 39 -12 71 -20 76 -19 12 -52 11 -44 -1 3 -6
-4 -14 -17 -19 -21 -9 -21 -10 10 -10 l32 -1 0 -61 c0 -57 -35 -178 -51 -179
-4 0 -19 19 -35 42 -25 35 -30 53 -33 120 -3 65 0 83 14 99 18 19 17 19 -24
19 -39 0 -41 -1 -27 -16 21 -20 21 -101 1 -179 -17 -65 -35 -91 -58 -82 -24 9
-66 107 -73 169 l-7 56 44 -4 c46 -4 44 0 -4 10 -34 8 -27 22 16 35 22 6 -50
9 -223 9 -177 0 -245 -3 -222 -9 47 -14 58 -45 44 -120 -12 -66 -55 -149 -76
-149 -8 0 -18 6 -24 13 -18 21 -42 127 -42 180 l0 50 48 -6 c48 -6 46 -5 -28
19 -13 5 -13 6 0 14 11 7 2 10 -29 10 -43 0 -44 0 -26 -19 14 -16 17 -34 14
-99 -3 -67 -8 -85 -33 -120 -16 -23 -31 -42 -35 -42 -15 1 -51 121 -51 174 l0
56 33 1 c17 0 25 3 17 6 -8 2 -21 7 -29 9 -11 3 -11 7 -1 19 13 16 5 18 -31 8z
m457 -39 c18 -72 -24 -234 -61 -234 -33 0 -75 95 -75 172 0 76 11 88 75 88 50
0 55 -2 61 -26z m154 7 c13 -26 13 -110 -2 -152 -15 -46 -46 -89 -63 -89 -37
0 -79 162 -61 234 6 24 11 26 61 26 43 0 56 -4 65 -19z"/>
<path d="M4137 3443 c-4 -3 -7 -15 -7 -27 0 -11 -11 -32 -25 -46 -13 -14 -28
-41 -31 -59 -7 -32 -6 -33 15 -19 13 7 31 30 42 51 24 46 47 57 65 31 7 -10
19 -25 25 -33 9 -10 9 -18 1 -32 -15 -23 -15 -56 -2 -64 6 -3 10 0 10 8 0 23
34 47 67 47 17 0 43 -10 59 -22 l29 -23 -22 35 c-13 21 -47 49 -83 70 -34 20
-71 48 -82 63 -19 26 -47 35 -61 20z"/>
<path d="M5802 3424 c-11 -16 -48 -44 -82 -64 -36 -21 -70 -49 -83 -70 l-22
-35 29 23 c16 12 43 22 61 22 32 0 65 -25 65 -49 0 -7 5 -9 10 -6 13 8 13 41
-2 64 -8 14 -8 22 1 32 6 8 18 23 25 33 18 26 41 15 65 -31 11 -21 29 -44 42
-51 21 -14 22 -13 15 19 -3 18 -17 45 -30 59 -14 14 -26 36 -28 50 -5 36 -40
38 -66 4z"/>
<path d="M3990 3430 c0 -5 4 -10 9 -10 6 0 13 5 16 10 3 6 -1 10 -9 10 -9 0
-16 -4 -16 -10z"/>
<path d="M5985 3430 c3 -5 10 -10 16 -10 5 0 9 5 9 10 0 6 -7 10 -16 10 -8 0
-12 -4 -9 -10z"/>
<path d="M3778 3423 c-50 -4 -55 -10 -37 -46 8 -17 5 -16 -15 6 -19 21 -34 27
-54 25 -26 -3 -25 -5 49 -83 42 -44 81 -89 86 -100 6 -11 20 -67 32 -124 24
-120 42 -149 134 -219 34 -26 111 -94 172 -151 151 -143 317 -251 454 -296 46
-15 69 -16 150 -9 123 11 379 11 502 0 86 -8 103 -6 161 13 72 24 211 101 297
164 31 23 99 82 151 132 52 50 115 106 140 125 113 84 140 124 159 230 21 120
28 136 113 227 78 84 81 88 55 91 -19 2 -34 -5 -53 -25 l-26 -28 17 28 c9 16
15 30 13 32 -2 1 -30 5 -63 8 l-61 5 -22 -39 c-12 -21 -43 -63 -67 -93 l-44
-55 33 20 c19 11 37 16 40 11 16 -27 -195 -272 -314 -367 l-35 -27 40 23 c82
47 213 140 274 195 l63 57 -7 -49 c-12 -87 -39 -129 -129 -197 -44 -34 -131
-109 -192 -167 -125 -118 -272 -214 -395 -257 -72 -25 -75 -25 -164 -12 -49 8
-155 14 -235 14 -80 0 -186 -6 -235 -14 -88 -13 -92 -13 -162 12 -123 42 -273
140 -397 257 -61 58 -149 134 -195 169 -90 69 -113 104 -127 196 l-7 49 64
-57 c61 -56 192 -149 274 -196 l40 -23 -35 27 c-119 95 -330 340 -314 367 3 5
21 0 40 -11 l33 -20 -44 55 c-24 30 -55 72 -67 94 -13 22 -27 39 -33 38 -5 -1
-31 -3 -57 -5z"/>
<path d="M4486 3224 c-11 -8 -28 -14 -39 -14 -13 0 -17 -5 -13 -16 3 -9 6 -22
6 -29 0 -8 13 -13 34 -13 19 0 39 -3 44 -6 11 -6 4 74 -7 86 -3 4 -15 0 -25
-8z"/>
<path d="M5486 3228 c-11 -35 -14 -88 -5 -82 6 3 26 6 45 6 21 0 34 5 34 13 0
7 3 20 6 29 4 11 0 16 -13 16 -10 0 -29 7 -41 16 -18 12 -23 13 -26 2z"/>
<path d="M4955 3140 c-34 -36 -47 -37 -93 -8 -34 21 -36 21 -64 5 -39 -22 -81
-21 -102 2 -22 24 -37 19 -60 -19 -10 -19 -26 -30 -39 -30 -19 -1 -19 -2 -6
-10 10 -6 29 -6 49 0 25 7 39 6 60 -7 25 -15 29 -15 51 1 31 21 84 20 138 -4
54 -25 71 -25 71 -2 0 11 9 27 20 37 19 17 21 17 40 0 11 -10 20 -26 20 -37 0
-23 17 -23 71 2 54 24 107 25 138 4 22 -16 26 -16 51 -1 19 12 35 14 56 8 16
-4 38 -5 49 0 19 7 19 8 -2 8 -13 1 -29 13 -39 31 -23 38 -38 43 -60 19 -21
-23 -63 -24 -102 -2 -28 16 -30 16 -64 -5 -46 -29 -59 -28 -93 8 -16 17 -36
30 -45 30 -9 0 -29 -13 -45 -30z"/>
<path d="M4850 2945 c0 -35 -47 -122 -91 -169 -23 -26 -38 -46 -35 -46 28 0
100 60 121 100 18 35 26 102 15 120 -8 12 -10 12 -10 -5z"/>
<path d="M5136 2942 c-8 -13 2 -77 17 -107 21 -43 94 -105 123 -105 4 0 -12
20 -34 44 -42 46 -66 85 -86 144 -8 22 -15 31 -20 24z"/>
<path d="M4240 2795 c24 -30 207 -162 276 -201 121 -67 113 -66 493 -66 l344
0 91 46 c84 42 284 182 316 221 7 9 -25 -7 -71 -36 -108 -67 -248 -134 -323
-153 -45 -12 -87 -14 -185 -9 -123 6 -127 7 -153 36 l-28 29 -27 -29 c-27 -29
-31 -30 -154 -36 -96 -5 -140 -3 -183 8 -73 19 -221 89 -325 154 -46 29 -78
45 -71 36z"/>
<path d="M160 2305 c0 -25 5 -45 10 -45 6 0 10 14 10 31 0 27 3 30 23 23 12
-3 34 -13 49 -20 31 -16 38 -17 38 -5 0 7 -108 61 -124 61 -3 0 -6 -20 -6 -45z"/>
<path d="M160 2232 c0 -5 7 -17 15 -28 13 -17 14 -17 15 -1 0 14 9 17 50 17
28 0 50 5 50 10 0 6 -28 10 -65 10 -36 0 -65 -4 -65 -8z"/>
<path d="M226 2171 c-3 -4 -17 -6 -30 -4 -20 4 -26 0 -31 -20 -7 -26 0 -47 14
-47 5 0 6 11 3 25 -3 18 0 25 12 25 9 0 16 -7 16 -15 0 -22 17 -18 23 6 8 29
32 18 32 -14 -1 -30 12 -36 22 -11 14 37 -41 87 -61 55z"/>
<path d="M226 2071 c-3 -4 -17 -6 -30 -4 -20 4 -26 0 -31 -20 -7 -26 0 -47 14
-47 5 0 6 11 3 25 -3 18 0 25 12 25 9 0 16 -7 16 -15 0 -22 17 -18 23 6 8 29
32 18 32 -14 -1 -30 12 -36 22 -11 14 37 -41 87 -61 55z"/>
<path d="M177 1962 c-22 -24 -21 -35 1 -55 36 -33 112 -13 112 28 0 20 -40 45
-71 45 -14 0 -33 -8 -42 -18z m77 -8 c24 -9 19 -33 -8 -40 -31 -7 -66 3 -66
21 0 21 41 32 74 19z"/>
<path d="M222 1858 c-5 -7 -12 -22 -14 -33 -4 -18 -6 -17 -18 8 -14 30 -33 38
-23 10 11 -31 46 -63 69 -63 23 0 54 24 54 41 0 39 -46 64 -68 37z m43 -34 c0
-10 -8 -20 -17 -22 -18 -3 -26 27 -11 42 12 11 28 0 28 -20z"/>
<path d="M222 1748 c-5 -7 -12 -22 -14 -33 -4 -18 -6 -17 -18 8 -14 30 -33 38
-23 10 11 -31 46 -63 69 -63 23 0 54 24 54 41 0 39 -46 64 -68 37z m43 -34 c0
-10 -8 -20 -17 -22 -18 -3 -26 27 -11 42 12 11 28 0 28 -20z"/>
<path d="M160 1615 c0 -25 5 -45 10 -45 6 0 10 14 10 30 0 17 2 30 4 30 2 0
25 -9 51 -20 53 -23 55 -23 55 -11 0 7 -108 61 -124 61 -3 0 -6 -20 -6 -45z"/>
<path d="M235 1551 c-3 -5 -21 -8 -40 -5 -48 6 -46 -17 2 -51 47 -32 63 -32
63 0 0 16 6 25 15 25 8 0 15 7 15 16 0 8 -4 13 -9 9 -5 -3 -12 -1 -16 5 -8 13
-22 13 -30 1z m-6 -30 c7 -5 12 -14 9 -21 -2 -8 -11 -5 -28 9 -17 14 -20 20
-10 21 8 0 21 -4 29 -9z"/>
<path d="M190 1449 c0 -5 -4 -7 -10 -4 -5 3 -10 2 -10 -4 0 -5 6 -12 13 -15 9
-5 9 -7 0 -12 -10 -4 -9 -9 2 -20 8 -9 20 -12 26 -8 6 3 14 1 18 -5 5 -8 15
-9 31 -3 19 7 21 10 7 15 -23 9 -22 28 1 20 12 -4 11 0 -7 17 -18 18 -25 20
-32 9 -6 -11 -9 -10 -15 4 -7 19 -24 23 -24 6z m45 -39 c-3 -5 -10 -10 -16
-10 -5 0 -9 5 -9 10 0 6 7 10 16 10 8 0 12 -4 9 -10z"/>
<path d="M140 1280 c0 -6 38 -10 95 -10 57 0 95 4 95 10 0 6 -38 10 -95 10
-57 0 -95 -4 -95 -10z"/>
<path d="M261 1189 c-22 -18 -25 -19 -42 -3 -11 10 -22 14 -27 10 -4 -4 4 -16
17 -27 l23 -19 -46 0 c-34 0 -46 -4 -46 -15 0 -12 15 -15 75 -15 60 0 75 3 75
15 0 9 -9 15 -22 15 l-23 0 24 19 c13 10 22 23 20 29 -2 6 -14 3 -28 -9z"/>
<path d="M190 1081 c0 -27 27 -51 55 -51 24 0 45 25 45 54 0 25 -18 19 -22 -6
-2 -17 -10 -23 -28 -23 -18 0 -26 6 -28 23 -4 27 -22 30 -22 3z"/>
<path d="M206 994 c-19 -18 -20 -28 -6 -55 21 -39 90 -16 90 30 0 16 -30 41
-50 41 -10 0 -26 -7 -34 -16z m59 -29 c0 -22 -31 -33 -47 -17 -17 17 -1 44 24
40 15 -2 23 -10 23 -23z"/>
<path d="M190 900 c0 -5 -7 -10 -15 -10 -8 0 -15 -4 -15 -10 0 -5 6 -10 14
-10 8 0 17 -6 20 -12 5 -10 7 -10 12 0 3 6 21 12 40 12 34 0 56 22 39 38 -4 4
-10 1 -12 -5 -5 -15 -63 -18 -63 -3 0 6 -4 10 -10 10 -5 0 -10 -4 -10 -10z"/>
<path d="M212 810 c-19 -34 -35 -34 -40 -2 -5 30 -22 28 -22 -2 0 -50 54 -61
77 -16 17 34 38 32 38 -3 -1 -32 18 -31 23 2 8 53 -49 69 -76 21z"/>
<path d="M200 675 c-22 -26 3 -65 40 -65 35 0 58 36 45 67 -7 16 -9 15 -13 -7
-6 -40 -22 -48 -22 -12 0 25 -4 32 -19 32 -10 0 -24 -7 -31 -15z m30 -26 c0
-11 -4 -17 -10 -14 -5 3 -10 13 -10 21 0 8 5 14 10 14 6 0 10 -9 10 -21z"/>
<path d="M197 561 c-8 -22 -18 -31 -34 -31 -14 0 -23 -6 -23 -15 0 -23 138
-22 147 2 10 26 -19 68 -50 71 -24 3 -30 -2 -40 -27z m57 3 c28 -11 18 -34
-14 -34 -18 0 -30 5 -30 13 0 25 15 32 44 21z"/>
<path d="M206 464 c-19 -18 -20 -28 -6 -55 21 -39 90 -16 90 30 0 16 -30 41
-50 41 -10 0 -26 -7 -34 -16z m59 -29 c0 -22 -31 -33 -47 -17 -17 17 -1 44 24
40 15 -2 23 -10 23 -23z"/>
<path d="M140 350 c0 -5 11 -10 25 -10 15 0 25 -6 25 -14 0 -45 73 -62 92 -22
20 45 6 56 -72 56 -40 0 -70 -4 -70 -10z m128 -27 c-2 -12 -12 -18 -28 -18
-16 0 -26 6 -28 18 -3 13 3 17 28 17 25 0 31 -4 28 -17z"/>
<path d="M220 246 c-36 -13 -66 -29 -68 -37 -1 -9 20 -21 68 -35 38 -12 70
-17 70 -12 0 6 -9 12 -20 15 -14 4 -20 14 -20 34 0 22 5 29 20 29 11 0 20 7
20 15 0 8 -1 15 -2 14 -2 0 -32 -11 -68 -23z m8 -51 c-7 -7 -48 7 -48 15 0 15
45 16 48 2 2 -8 2 -15 0 -17z"/>
</g>
</svg>
